<?xml version="1.0" encoding="UTF-8" standalone="no"?>
<svg
   xmlns:dc="http://purl.org/dc/elements/1.1/"
   xmlns:cc="http://creativecommons.org/ns#"
   xmlns:rdf="http://www.w3.org/1999/02/22-rdf-syntax-ns#"
   xmlns:svg="http://www.w3.org/2000/svg"
   xmlns="http://www.w3.org/2000/svg"
   xmlns:sodipodi="http://sodipodi.sourceforge.net/DTD/sodipodi-0.dtd"
   xmlns:inkscape="http://www.inkscape.org/namespaces/inkscape"
   version="1.1"
   id="Ebene_1"
   x="0px"
   y="0px"
   viewBox="0 0 566.9 566.9"
   style="enable-background:new 0 0 566.9 566.9;"
   xml:space="preserve"
   sodipodi:docname="horse.svg"
   inkscape:version="1.0.2 (e86c870879, 2021-01-15, custom)"><metadata
   id="metadata1062"><rdf:RDF><cc:Work
       rdf:about=""><dc:format>image/svg+xml</dc:format><dc:type
         rdf:resource="http://purl.org/dc/dcmitype/StillImage" /><dc:title></dc:title></cc:Work></rdf:RDF></metadata><defs
   id="defs1060" /><sodipodi:namedview
   pagecolor="#ffffff"
   bordercolor="#666666"
   borderopacity="1"
   objecttolerance="10"
   gridtolerance="10"
   guidetolerance="10"
   inkscape:pageopacity="0"
   inkscape:pageshadow="2"
   inkscape:window-width="1920"
   inkscape:window-height="1021"
   id="namedview1058"
   showgrid="false"
   inkscape:zoom="0.63062265"
   inkscape:cx="503.37267"
   inkscape:cy="262.62061"
   inkscape:window-x="0"
   inkscape:window-y="0"
   inkscape:window-maximized="1"
   inkscape:current-layer="Ebene_1-2"
   inkscape:document-rotation="0"
   showguides="false"><inkscape:grid
     type="xygrid"
     id="grid1180" /></sodipodi:namedview>
<style
   type="text/css"
   id="style992">
	.st0{fill:url(#SVGID_1_);}
	.st1{fill:#E8356D;}
	.st2{fill:#FFFFFF;}
	.st3{fill:#891F7D;}
	.st4{font-family:'Jost-Bold';}
	.st5{font-size:80px;}
	.st6{letter-spacing:-4;}
	.st7{letter-spacing:-8;}
</style>
<g
   id="Ebene_2_1_">
	<g
   id="Ebene_1-2">
		
			<linearGradient
   id="SVGID_1_"
   gradientUnits="userSpaceOnUse"
   x1="0"
   y1="284.4248"
   x2="566.93"
   y2="284.4248"
   gradientTransform="matrix(1 0 0 -1 0 567.8898)">
			<stop
   offset="0"
   style="stop-color:#00A9A3"
   id="stop994" />
			<stop
   offset="0.26"
   style="stop-color:#44B682"
   id="stop996" />
			<stop
   offset="0.77"
   style="stop-color:#C7D142"
   id="stop998" />
			<stop
   offset="1"
   style="stop-color:#FCDB28"
   id="stop1000" />
		</linearGradient>
		
		
		
		
		
		
		
		
		
		
		
		
		
		
		
		
		
		
		
		
		
		
		
		
		
		<g
   id="g1650"
   transform="translate(5.5951239,-59.605861)"
   inkscape:export-xdpi="227.97774"
   inkscape:export-ydpi="227.97774"
   inkscape:export-filename="/home/ben/Dev/franka.jetzt/affinity/apps/wir-md/assets/app-logo-2.png"><circle
     class="st1"
     cx="277.5"
     cy="283"
     id="circle1005"
     r="209.60001"
     style="fill:#891f7d;fill-opacity:1" /><path
     class="st2"
     d="m 280.8,170.2 c 11.1,-0.4 22.1,0.9 32.8,3.8 2.2,0.6 4.3,1.3 6.4,2.1 7.4,3.4 13.7,8.7 18.3,15.3 4.9,7.2 8.1,15.4 9.5,23.9 0.8,5 1.3,10.1 1.2,15.2 0.1,19.5 0.1,39 0.1,58.6 -0.1,5.6 0.1,11.1 0.6,16.7 0.4,5.3 1.4,10.6 3,15.6 1.2,3.9 3,7.5 5.4,10.8 0.6,0.9 1.4,1.6 2,2.5 -8,-1.7 -15.6,-5.3 -22.1,-10.4 -5.7,-4.6 -9.9,-10.7 -12.2,-17.7 -1.6,-4.9 -2.4,-10.1 -2.3,-15.2 0,-18.2 0,-36.4 0,-54.6 0,-9.9 -2,-19.7 -5.9,-28.8 -3.2,-7.2 -7.5,-13.9 -12.8,-19.6 -6.7,-7.2 -14.6,-13.3 -23.4,-17.8 z"
     id="path1007" /><path
     class="st2"
     d="m 267.5,171.6 c 1.5,-0.3 3.1,-0.5 4.6,-0.6 3.2,1.2 6.2,2.6 9.2,4.2 7,3.8 13.3,8.6 18.9,14.3 6,6.2 10.8,13.4 14.1,21.4 3.5,8.8 5.2,18.2 5,27.6 0,18.2 0,36.4 0,54.5 0.1,5.7 1.1,11.3 3.1,16.7 0.9,2.3 2,4.6 3.2,6.8 -4.4,-0.8 -8.5,-2.5 -12.2,-4.9 -5.4,-3.7 -9.6,-8.9 -12.1,-15 -2,-4.7 -3.4,-9.6 -4.2,-14.6 -1,-6.2 -1.4,-12.5 -1.4,-18.9 -0.2,-3.7 -0.2,-7.4 -0.2,-11.1 -0.2,-6.3 -0.2,-12.6 -0.4,-18.9 -0.3,-8.9 -2.7,-17.6 -6.8,-25.4 -3.4,-6.4 -7.9,-12.1 -13.1,-17 -6.2,-5.7 -13.2,-10.5 -20.8,-14.2 -0.9,-0.4 -1.8,-0.8 -2.6,-1.4 5.1,-1.4 10.3,-2.7 15.7,-3.5 z"
     id="path1009" /><path
     class="st2"
     d="m 245.3,177.6 c 0.6,-0.3 1.2,0.1 1.7,0.3 8,3.3 15.4,7.7 22.1,13.1 5.8,4.7 10.7,10.4 14.5,16.8 4.6,8 7.2,17 7.4,26.2 0.2,11.2 0.5,22.4 0.7,33.6 0.1,7.7 1.2,15.4 3.1,22.8 -7,-1.7 -13.2,-5.6 -17.6,-11.3 -5.4,-6.7 -8.5,-15 -10,-23.4 -0.5,-2.9 -0.8,-5.9 -1,-8.8 0,-6.3 0,-12.6 -0.5,-18.8 -0.7,-8.4 -2.5,-16.9 -7.1,-24 -4.6,-7.1 -11.2,-12.3 -18.3,-16.5 -2.5,-1.5 -5.1,-2.8 -7.7,-4.2 4.2,-2.1 8.4,-4.1 12.7,-5.8 z"
     id="path1011" /><path
     class="st2"
     d="m 337.4,183.9 c 1.5,0.7 2.9,1.5 4.2,2.4 7.7,4.7 14.7,10.4 21,16.9 0.5,0.5 0.4,1.2 0.5,1.8 2.1,17.4 -1.1,35 -9.1,50.5 -0.2,0.6 -0.6,1.1 -1,1.5 0,-6.7 0,-13.4 0,-20 0,-5.5 0.1,-11 -0.5,-16.4 -1,-10 -3.8,-19.9 -9.1,-28.5 -1.8,-3 -3.8,-5.7 -6,-8.2 z"
     id="path1013" /><path
     class="st2"
     d="m 228.1,185.9 c 7.4,3.5 14.8,7.5 20.9,13.1 4.8,4.4 8.4,10 10.2,16.3 -1.8,-0.1 -3.5,-0.4 -5.2,-0.8 -8.2,-2 -16,-5.5 -22.9,-10.5 -4.7,-3.3 -8.8,-7.5 -11.9,-12.4 2.9,-2 5.9,-3.9 8.9,-5.7 z"
     id="path1015" /><path
     class="st2"
     d="m 205.6,202.3 c 3.3,-2.9 6.7,-5.7 10.3,-8.3 4.5,6.7 10.5,12.3 17.6,16.4 7.4,4.5 15.6,7.5 24.2,8.9 0.9,0.1 1.9,0.2 2.8,0.4 0.4,1.7 0.8,3.4 0.9,5.2 0.2,1.5 0.4,3.1 0.5,4.7 -10,-0.1 -19.9,-2.2 -29.2,-6 C 221.8,219.1 212,212 205.6,202.3 Z"
     id="path1017" /><path
     class="st2"
     d="m 197.3,210.3 c 1.7,-1.8 3.4,-3.5 5.1,-5.1 2.8,4 6,7.6 9.6,10.8 -3.5,0.1 -7,-0.6 -10.3,-1.9 -1.7,-0.7 -3.3,-1.6 -4.8,-2.8 -0.3,-0.4 0.2,-0.8 0.4,-1 z"
     id="path1019" /><path
     class="st2"
     d="m 194,214.1 c 5.5,4.2 12.3,6.3 19.3,5.8 1.1,0 2.3,-0.3 3.4,-0.4 1.1,0.6 2.1,1.4 3.2,2.1 1.8,1.2 3.7,2.1 5.5,3.2 -5,1.8 -10.2,2.6 -15.5,2.2 -7,-0.4 -14.2,-2.5 -19.6,-7.2 1,-2 2.3,-3.9 3.7,-5.7 z"
     id="path1021" /><path
     class="st2"
     d="m 188.6,223.9 c 2.7,2.1 5.7,3.7 8.9,4.9 5.4,1.9 11.1,2.7 16.9,2.4 5.4,-0.2 10.7,-1.5 15.5,-3.8 0.3,-0.2 0.7,-0.2 1,-0.1 9.8,4 20.4,6.2 31,6.3 0.3,3.8 0.2,7.6 0.2,11.4 -19.6,0 -39.2,0 -58.8,0 -4,-6.8 -9.1,-13 -15.7,-17.4 0.4,-1.2 0.7,-2.4 1,-3.7 z"
     id="path1023" /><path
     class="st2"
     d="m 154.6,229.2 c 7,-2.7 14.9,-3.7 22.2,-1.7 6.8,1.8 12.7,6.2 17.2,11.5 1.7,1.9 3.2,4 4.5,6.1 -3.8,0 -7.6,0 -11.3,0 -0.7,0 -1.3,0 -2,-0.1 l -32.6,-8 c -2.9,-0.7 -5.9,-1.4 -8.8,-2.2 3.3,-2.3 7,-4.2 10.8,-5.6 z"
     id="path1025" /><path
     class="st2"
     d="m 160.7,247.1 c 1.3,-1.1 2.7,-2 4.2,-2.7 1,0 2,0.2 3,0.6 5.2,1.3 10.3,2.6 15.5,3.8 0.1,1.8 0.1,3.7 0,5.5 -3,1.3 -6,2.7 -9,3.9 -1,-1.2 -2.3,-2.3 -3.7,-3.1 -2.1,-1.3 -4.6,-1.8 -6.9,-2.5 -2.3,-0.7 -4.4,-1.3 -6.6,-2 1.1,-1.5 2.2,-2.6 3.5,-3.5 z"
     id="path1027" /><path
     class="st2"
     d="m 362.7,246.2 c 0.8,0.6 1.4,1.3 2,2.1 2.8,3.9 4.1,8.7 5,13.3 0.8,4.3 1.2,8.6 1.2,12.9 v 56.9 c 0.1,2.3 0,4.6 -0.1,6.9 -1.4,-1.9 -3.6,-2.8 -5.3,-4.3 -2.9,-2.4 -5.3,-5.5 -6.9,-8.9 -1.9,-4.2 -3.3,-8.6 -4,-13.1 -1.8,-10.3 -1.4,-20.8 -1.5,-31.1 v -15.3 c 0,-0.5 0.1,-0.9 0.4,-1.3 3.8,-5.7 6.9,-11.8 9.2,-18.1 z"
     id="path1029" /><path
     class="st2"
     d="m 187.5,249.3 c 5.9,-0.1 11.7,0 17.6,-0.1 h 15.8 c -0.1,4.7 0.5,9.3 1.7,13.9 1,3.9 2.6,7.6 4.7,11.1 3.3,5.5 7.9,10 13.3,13.2 1.4,0.9 3.1,1.4 4.4,2.5 -3.8,6.5 -8.9,12.1 -15,16.5 -3.7,2.7 -7.7,5 -11.8,7 -0.9,0.4 -1.4,1.2 -1.4,2.2 v 20 c 0,3.4 1.6,6.6 4.2,8.7 0.7,0.6 1.5,1.1 2.3,1.6 -2,3.7 -4.8,6.9 -8.4,9.2 -5.3,3.3 -11.4,4.8 -17.6,4.4 -0.4,0 -0.7,-0.3 -1,-0.6 -2.9,-3.1 -5,-6.9 -6.2,-11 -1.9,-6.1 -2.7,-12.5 -2.4,-18.9 -0.2,-26.5 -0.1,-53.1 -0.2,-79.7 m 22.6,27.2 c -0.8,0.4 -1.2,1.2 -1.2,2 v 9.9 c 0.1,2 -1.1,4.3 -3.2,4.6 -1.1,0.3 -1.7,1.4 -1.4,2.5 0.1,0.2 0.2,0.5 0.3,0.7 0.7,0.8 1.8,1.1 2.8,0.7 3.4,-1.1 5.7,-4.7 5.7,-8.2 0,-3.5 0,-6.9 0,-10.4 0,-1.1 -1,-2 -2.2,-2 -0.3,0 -0.5,0.1 -0.8,0.2 z"
     id="path1031" /><path
     class="st2"
     d="m 220.8,249.2 c 5.3,0 10.5,0 15.7,0 0.2,4.3 1.4,8.6 3.4,12.5 1.9,3.6 4.5,6.7 7.8,9.2 1.2,1 2.7,1.7 3.8,2.8 -1.5,5.7 -3.7,11.1 -6.6,16.2 -1.3,-1.1 -3,-1.6 -4.4,-2.5 -5.5,-3.2 -10.1,-7.8 -13.3,-13.2 -2.1,-3.5 -3.6,-7.2 -4.7,-11.1 -1.2,-4.5 -1.8,-9.2 -1.7,-13.9 z"
     id="path1033" /><path
     class="st2"
     d="m 236.5,249.2 c 5.9,0 11.8,-0.1 17.7,0 0.1,8.2 -0.8,16.5 -2.8,24.5 -1.1,-1.1 -2.6,-1.8 -3.8,-2.8 -3.2,-2.5 -5.9,-5.6 -7.8,-9.2 -1.9,-3.9 -3.1,-8.1 -3.3,-12.5 z"
     id="path1035" /><path
     class="st2"
     d="m 149.8,263 c 1.7,-4.6 4.2,-8.9 7.4,-12.6 2.2,0.8 4.4,1.4 6.6,2 2.2,0.6 4.8,1.2 6.9,2.5 1.4,0.8 2.6,1.9 3.7,3.1 -7,3.2 -14.1,6.2 -21.1,9.3 -1.8,0.7 -3.5,1.6 -5.4,2.3 0.4,-2.2 1.1,-4.5 1.9,-6.6 z"
     id="path1037" /><path
     class="st2"
     d="m 266.7,269.3 c 2.7,7 7.1,13.2 12.8,18.1 4.8,4 10.6,6.7 16.8,7.7 2.5,6.8 6.4,13.3 12.1,18 5.5,4.4 12.1,7.2 19.1,8 0.7,0.1 1.6,0.1 2,0.8 5,5.8 11.2,10.3 18.3,13.2 5,2.1 10.1,3.6 15.4,4.6 1.9,0.4 3.9,0.6 5.9,0.5 0.6,-0.1 1.2,-0.3 1.8,-0.7 0.3,3.1 0,6.1 0.1,9.2 0,21 0,42 0,63 -1.3,-0.3 -2.6,-0.8 -3.8,-1.4 -7.5,-3.4 -14.5,-7.8 -20.8,-13.1 -11.6,-9.8 -20.8,-22.3 -26.7,-36.3 -4.6,-11.1 -7.5,-22.8 -8.4,-34.8 0,-1.2 -0.9,-2.1 -2.1,-2.1 -0.1,0 -0.2,0 -0.3,0 -1.1,0.2 -1.9,1.2 -1.8,2.3 1.5,18 6.8,35.8 16.5,51.1 3.5,5.5 7.6,10.7 12.1,15.5 -11.1,0.1 -22.1,-1 -33,-3.3 -8.9,-2 -17.8,-4.6 -25.7,-9.1 0,-2.4 0.1,-4.8 -1,-6.9 -1.9,-3.8 -6,-5.8 -10,-6.5 -1.3,-0.2 -2.9,-0.8 -3.9,0.4 -0.7,0.9 -0.6,2.2 0.3,2.9 0.3,0.2 0.6,0.4 0.9,0.4 2.2,0.2 4.3,0.8 6.2,1.8 1.9,1 3.1,2.8 3.3,4.9 v 21.6 c -0.1,1.4 1.1,2.1 2,3 6,5.6 13.3,9.7 21.2,12.1 5.2,1.5 10.6,2.5 16,2.8 0.7,0.1 1.3,-0.1 1.8,-0.5 0.9,-0.9 1.5,-2 2.4,-2.8 0.9,5.2 2.3,10.4 5.1,14.9 -3.9,1.4 -8,2.2 -12.1,2.5 -9.6,0.6 -19.2,-1 -28.1,-4.6 -7,-2.6 -13.5,-6.3 -19.4,-10.9 -6,-4.7 -11,-10.5 -14.9,-17.1 -3.8,-6.7 -6.6,-13.8 -8.3,-21.3 -2,-9.2 -3.1,-18.6 -3.1,-28 17.6,0 35.1,0 52.7,0 2.9,3.4 6.2,6.6 9.8,9.3 0.9,0.7 1.8,1.3 2.8,1.9 1.1,0.4 2.3,-0.1 2.7,-1.1 0.1,-0.3 0.2,-0.6 0.1,-0.9 0,-1 -0.9,-1.7 -1.7,-2.2 -6.4,-4.6 -11.9,-10.4 -16.1,-17.1 -4.5,-7.2 -8.1,-15 -10.7,-23.1 -3.9,-12.2 -6.4,-24.8 -7.6,-37.6 -0.3,-2.9 -0.7,-6 -0.7,-9.1 z"
     id="path1039" /><path
     class="st2"
     d="m 321.3,407.2 c 5.1,1.7 10.1,3.7 15.1,5.5 1.3,0.4 2.5,0.9 3.7,1.5 -2.3,3.9 -5.3,7.2 -9,9.8 -1.8,1.3 -3.8,2.4 -5.8,3.3 -3.4,-5.1 -4.7,-11.2 -5.4,-17.2 -0.3,-1.3 0.8,-2.1 1.4,-2.9 z"
     id="path1041" /><path
     class="st2"
     d="m 393.7,258 c -1.8,-15 -7,-29.3 -15.3,-41.9 -9.6,-14.5 -22.5,-26.6 -37.7,-35.2 -26.3,-15.2 -57.7,-18.9 -86.9,-10.5 -10.2,3 -19.9,7.2 -29,12.7 -9.6,5.7 -18.5,12.5 -26.5,20.3 -4,3.7 -7.6,7.9 -10.5,12.5 -1.8,3 -3.1,6.2 -3.9,9.6 -1.9,-0.9 -3.8,-1.6 -5.8,-2.2 -5.9,-1.6 -12,-1.6 -17.9,-0.2 -6.6,1.6 -12.9,4.3 -18.5,8 -1.5,0.9 -2.9,2 -4.2,3.1 -0.9,0.8 -1,2.1 -0.2,2.9 0,0 0,0 0,0.1 0.6,0.5 1.4,0.8 2.2,0.9 l 19.8,4.8 c -0.2,0.3 -0.5,0.5 -0.8,0.8 -1.8,1.4 -3.5,3 -4.9,4.7 -5,6.1 -8.4,13.4 -9.9,21.1 -0.3,1.3 -0.5,2.6 -0.6,3.9 0.1,1.1 1.1,2 2.2,1.9 0.2,0 0.5,-0.1 0.7,-0.2 12.5,-5.4 24.9,-11 37.4,-16.4 v 67 c 0,3.4 -0.1,6.9 0.2,10.3 0.4,6.1 1.9,12.1 4.3,17.7 1.6,3.5 3.9,6.7 6.7,9.2 0.8,0.5 1.8,0.8 2.7,0.7 6.3,0.3 12.6,-1.1 18.2,-4 5.7,-3.1 10.1,-8.1 12.6,-14.1 0.4,-1 -0.1,-2.2 -1.2,-2.6 0,0 0,0 -0.1,0 -1.7,-0.6 -3.2,-1.6 -4.3,-3 -1,-1.4 -1.6,-3.1 -1.5,-4.9 0,-5.8 0,-11.6 0,-17.4 0,-0.4 -0.1,-0.8 0.1,-1.1 0.9,-0.5 1.9,-1 2.8,-1.5 6.4,-3.3 12.2,-7.7 17.1,-12.9 5.7,-6.2 10.1,-13.6 12.8,-21.6 3.5,-10.1 4.7,-20.8 4.7,-31.4 1.2,0 2.4,0 3.6,0 -0.2,9.2 0.1,18.3 1,27.5 0.9,10.5 2.7,20.8 5.2,31 2.3,9.5 5.8,18.8 10.3,27.5 1.8,3.4 3.9,6.7 6.1,9.8 -17.1,0.1 -34.3,0 -51.4,0 -1,0 -1.8,0.7 -2,1.6 0,0.8 0,1.5 0,2.3 0.2,14 1.8,28.2 6.8,41.4 2.9,7.5 7.1,14.5 12.4,20.6 4.9,5.5 10.7,10.2 17.2,13.9 6.8,3.9 14,6.8 21.6,8.7 9,2.2 18.3,2.5 27.4,0.7 6.9,-1.3 13.3,-4.3 18.8,-8.7 3.9,-3.2 7.1,-7.2 9.3,-11.8 0.4,-1.1 -0.1,-2.3 -1.1,-2.7 0,0 -0.1,0 -0.1,0 -7.4,-2.7 -14.8,-5.4 -22.2,-8.1 -0.9,-0.4 -1.9,-0.1 -2.5,0.6 -2.5,3.1 -5,6.2 -7.4,9.3 -10.8,-0.7 -21.7,-4 -30.3,-10.6 -1.5,-1.1 -3,-2.4 -4.3,-3.8 0,-4.4 0,-8.8 0,-13.2 7.9,3.8 16.2,6.6 24.7,8.3 12.3,2.5 24.9,3.7 37.5,3.4 0.3,0 0.7,-0.1 1,0.2 8.3,7.7 18,13.8 28.6,18 H 394 V 258.1 Z m -5.4,-7.5 c -3.2,-15.3 -10.2,-29.7 -20.4,-41.6 0,0 0,0 0,0 10.3,11.9 17.3,26.3 20.4,41.6 z m -17.5,87.8 c -1.4,-1.8 -3.5,-2.8 -5.3,-4.2 -2.9,-2.4 -5.3,-5.5 -6.9,-8.9 -1.9,-4.2 -3.3,-8.6 -4,-13.1 -1.8,-10.3 -1.4,-20.8 -1.5,-31.1 v -15.3 c 0,-0.5 0.1,-0.9 0.4,-1.3 3.7,-5.7 6.8,-11.7 9.1,-18.1 0.8,0.6 1.4,1.3 1.9,2.1 2.8,4 4.1,8.7 5,13.3 0.8,4.3 1.2,8.6 1.2,12.9 v 56.9 c 0.2,2.2 0.4,4.5 0.1,6.8 z M 368,218.4 c 0,-0.6 0,-1.2 0,-1.8 0,0.6 0,1.2 0,1.8 -0.3,8.6 -1.8,17.1 -4.4,25.3 2.6,-8.2 4.1,-16.7 4.4,-25.3 z m -26.3,-32.1 v 0 c 7.7,4.8 14.7,10.4 21,16.9 0.5,0.5 0.4,1.2 0.5,1.8 2.1,17.4 -1.1,35 -9.2,50.5 -0.3,0.6 -0.6,1.1 -1,1.5 0,-6.7 0,-13.4 0,-20 0.1,-5.5 0,-11 -0.5,-16.4 -1,-10 -3.8,-20 -9.1,-28.6 -1.8,-2.8 -3.8,-5.5 -6,-8 1.5,0.6 2.9,1.4 4.3,2.3 z M 313.5,174 c 10.1,2.5 19,8.7 24.7,17.4 4.9,7.2 8.1,15.3 9.5,23.9 0.9,5 1.3,10.1 1.2,15.2 0.1,19.5 0.1,39.1 0.1,58.6 -0.1,5.6 0.1,11.1 0.6,16.7 0.4,5.3 1.4,10.6 3,15.6 1.2,3.9 3,7.5 5.4,10.8 0.6,0.9 1.4,1.6 2,2.5 -8.1,-1.7 -15.6,-5.3 -22.1,-10.4 -5.7,-4.6 -9.9,-10.7 -12.2,-17.7 -1.6,-4.9 -2.4,-10.1 -2.3,-15.3 0,-18.2 0,-36.4 0,-54.6 0,-9.9 -2,-19.7 -5.9,-28.8 -3.2,-7.2 -7.5,-13.9 -12.8,-19.6 -6.7,-7.2 -14.6,-13.3 -23.4,-17.8 -0.2,-0.1 -0.4,-0.3 -0.6,-0.4 11.1,-0.3 22.1,1 32.8,3.9 z m -46,-2.4 v 0 c 1.6,-0.3 3.1,-0.5 4.7,-0.5 3.2,1.2 6.2,2.6 9.2,4.2 7,3.8 13.3,8.6 18.9,14.3 6,6.2 10.8,13.4 14.1,21.4 3.5,8.8 5.2,18.2 5,27.6 0,18.2 0,36.4 0,54.5 0.1,5.7 1.1,11.3 3.1,16.7 0.9,2.3 2,4.6 3.3,6.8 -4.4,-0.8 -8.5,-2.5 -12.2,-4.9 -5.4,-3.7 -9.6,-8.9 -12.1,-15 -2,-4.7 -3.4,-9.6 -4.2,-14.6 -1,-6.2 -1.4,-12.5 -1.4,-18.8 -0.2,-3.7 -0.2,-7.4 -0.2,-11.1 -0.2,-6.3 -0.2,-12.6 -0.4,-18.8 -0.3,-8.9 -2.7,-17.6 -6.8,-25.5 -3.4,-6.4 -7.8,-12.1 -13.1,-17 -6.2,-5.7 -13.2,-10.5 -20.9,-14.2 -0.9,-0.4 -1.8,-0.8 -2.6,-1.4 5,-1.6 10.3,-2.9 15.6,-3.7 z m -39.3,14.3 c 7.4,3.5 14.8,7.5 20.9,13.1 4.8,4.4 8.4,10 10.2,16.3 -1.8,-0.1 -3.5,-0.4 -5.2,-0.8 -8.2,-2 -16,-5.5 -22.9,-10.5 -4.7,-3.3 -8.8,-7.5 -11.9,-12.4 2.9,-2 5.8,-3.9 8.9,-5.7 z m 5.2,24.5 c 7.4,4.5 15.6,7.5 24.1,8.9 0.9,0 1.9,0.2 2.8,0.4 0.4,1.7 0.7,3.4 0.9,5.2 0.2,1.5 0.4,3.1 0.5,4.7 -10,-0.1 -19.9,-2.2 -29.2,-6 -10.7,-4.4 -20.5,-11.5 -26.9,-21.2 3.3,-2.9 6.7,-5.7 10.3,-8.3 4.5,6.7 10.5,12.3 17.5,16.3 z m -36.1,-0.1 c 1.6,-1.8 3.4,-3.5 5.1,-5.2 2.8,4 6,7.6 9.7,10.7 -3.5,0.1 -7,-0.6 -10.3,-1.8 -1.7,-0.7 -3.3,-1.6 -4.8,-2.8 -0.4,-0.3 0.1,-0.7 0.3,-0.9 z m -3.3,3.8 c 5.5,4.3 12.3,6.3 19.3,5.8 1.1,0 2.3,-0.3 3.4,-0.4 1.1,0.6 2.1,1.5 3.2,2.1 1.8,1.2 3.7,2.1 5.5,3.2 -5,1.8 -10.2,2.6 -15.5,2.2 -7,-0.4 -14.2,-2.5 -19.6,-7.2 1,-2 2.3,-3.9 3.7,-5.7 z m -10.6,40.1 v 0 c -3,1.3 -6,2.7 -9,3.9 -7,3.2 -14.1,6.2 -21.1,9.3 -1.8,0.7 -3.5,1.6 -5.4,2.3 0.5,-2.3 1.1,-4.5 2,-6.7 1.7,-4.6 4.2,-8.9 7.4,-12.5 1,-1.3 2.2,-2.4 3.5,-3.4 1.3,-1 2.7,-1.9 4.1,-2.7 1,0 2,0.2 3,0.5 5.2,1.2 10.4,2.6 15.5,3.8 0,1.8 0,3.7 0,5.5 z m 1.8,-9.2 v 0 c -10.9,-2.7 -21.8,-5.4 -32.7,-8 -2.9,-0.7 -5.8,-1.4 -8.7,-2.2 3.4,-2.3 7,-4.2 10.8,-5.6 7,-2.7 14.9,-3.7 22.3,-1.7 6.8,1.8 12.7,6.2 17.2,11.5 1.7,1.9 3.2,4 4.5,6.1 -3.8,0 -7.6,0 -11.3,0 -0.8,0 -1.5,0 -2.1,-0.1 z m 66.3,28.7 v 0 c -1.5,5.7 -3.7,11.1 -6.7,16.2 -3.8,6.5 -8.8,12.1 -14.9,16.5 -3.7,2.6 -7.7,5 -11.8,7 -0.9,0.4 -1.4,1.2 -1.4,2.2 0,6.7 0,13.3 0,20 0.1,3.4 1.6,6.6 4.2,8.7 0.7,0.6 1.5,1.1 2.3,1.6 -2,3.7 -4.8,6.9 -8.4,9.2 -5.3,3.2 -11.4,4.8 -17.6,4.4 -0.4,0 -0.7,-0.3 -1,-0.6 -2.9,-3.1 -5.1,-6.9 -6.3,-11 -1.9,-6.1 -2.7,-12.5 -2.5,-18.9 0,-26.6 0,-53.1 0,-79.7 5.8,-0.1 11.7,0 17.6,-0.1 5.2,0 10.5,0 15.8,0 5.3,0 10.5,0 15.7,0 5.9,0 11.8,0 17.7,0 0.2,8.2 -0.7,16.5 -2.7,24.5 z m -48.1,-28.6 v 0 c -4,-6.8 -9.2,-13 -15.8,-17.4 0.3,-1.3 0.6,-2.5 1,-3.7 2.7,2 5.7,3.7 8.9,4.9 5.4,1.9 11.1,2.8 16.9,2.4 5.4,-0.2 10.7,-1.5 15.5,-3.8 0.3,-0.2 0.7,-0.3 1,-0.1 9.8,4.1 20.4,6.2 31,6.3 0.3,3.8 0.2,7.6 0.2,11.4 -19.5,0 -39.1,0 -58.7,0 z m 62.4,-16.9 v 0 c -0.7,-8.4 -2.5,-16.9 -7.1,-24 -4.6,-7.1 -11.2,-12.3 -18.3,-16.5 -2.5,-1.5 -5.1,-2.8 -7.7,-4.2 4.1,-2.2 8.3,-4.2 12.6,-5.8 0.6,-0.3 1.2,0.1 1.7,0.3 8,3.3 15.4,7.7 22.1,13.1 5.8,4.7 10.7,10.4 14.5,16.8 4.6,7.9 7.2,16.9 7.5,26.1 0.2,11.2 0.5,22.4 0.7,33.6 0.1,7.7 1.2,15.4 3.1,22.8 -7,-1.7 -13.2,-5.6 -17.6,-11.3 -5.4,-6.7 -8.5,-15 -10,-23.4 -0.5,-2.9 -0.8,-5.9 -1,-8.8 0,-6.2 0.1,-12.5 -0.5,-18.7 z m 55.4,179 c 5.1,1.7 10.1,3.7 15.1,5.4 1.3,0.4 2.5,0.9 3.7,1.5 -2.3,3.9 -5.3,7.2 -9,9.7 v 0 c -1.8,1.3 -3.8,2.4 -5.8,3.3 -3.4,-5.1 -4.7,-11.2 -5.4,-17.2 -0.3,-1.1 0.9,-1.8 1.4,-2.7 z m 52.4,5 c -0.9,0 -1.9,-0.2 -2.8,-0.4 v -0.2 c -1.3,-0.3 -2.6,-0.8 -3.8,-1.3 -7.5,-3.4 -14.5,-7.8 -20.8,-13.1 -11.6,-9.8 -20.8,-22.3 -26.7,-36.3 -4.6,-11.1 -7.5,-22.8 -8.5,-34.8 0,-1.2 -0.9,-2.1 -2.1,-2.1 -0.1,0 -0.2,0 -0.3,0 -1.1,0.2 -1.9,1.2 -1.8,2.3 1.5,18 6.8,35.8 16.5,51.1 3.5,5.5 7.6,10.7 12.1,15.5 -11.1,0.1 -22.1,-1 -33,-3.3 -8.9,-1.9 -17.7,-4.6 -25.7,-9.1 0,-2.3 0.1,-4.8 -1,-6.9 -1.9,-3.8 -6,-5.8 -10,-6.5 -1.3,-0.2 -2.9,-0.8 -3.9,0.4 -0.7,0.9 -0.6,2.2 0.2,2.9 0.3,0.2 0.6,0.4 0.9,0.5 2.2,0.2 4.3,0.8 6.3,1.8 1.8,1 3.1,2.8 3.3,4.9 v 21.7 c -0.1,1.3 1.2,2.1 2,3 6.1,5.6 13.3,9.8 21.3,12.1 5.2,1.6 10.6,2.5 16,2.8 0.7,0.1 1.3,-0.1 1.8,-0.5 0.9,-0.9 1.5,-1.9 2.3,-2.8 0.8,5.2 2.5,10.3 5.1,14.9 -3.9,1.4 -8,2.2 -12.1,2.5 v 0 c -9.6,0.6 -19.2,-1 -28.1,-4.6 -7,-2.6 -13.5,-6.3 -19.4,-10.9 -6,-4.7 -11,-10.5 -14.9,-17.1 -3.8,-6.7 -6.6,-13.8 -8.3,-21.3 -2,-9.2 -3.1,-18.6 -3.1,-28 17.6,0 35.1,0 52.6,0 2.9,3.5 6.2,6.6 9.8,9.3 0.9,0.7 1.8,1.3 2.8,1.9 1.1,0.4 2.3,-0.1 2.7,-1.2 0.1,-0.3 0.2,-0.6 0.1,-0.8 0,-1 -1,-1.7 -1.7,-2.2 -6.4,-4.6 -11.9,-10.4 -16.1,-17.1 -4.5,-7.2 -8.1,-15 -10.6,-23.1 -3.9,-12.2 -6.4,-24.8 -7.6,-37.6 -0.3,-3.1 -0.6,-6.1 -0.7,-9.2 2.7,7 7.1,13.2 12.8,18.1 4.8,4 10.6,6.7 16.8,7.7 2.5,6.8 6.4,13.3 12.1,18 5.5,4.4 12.1,7.2 19.1,8 0.7,0.1 1.6,0.1 2,0.8 5,5.8 11.3,10.3 18.3,13.3 4.9,2.1 10.1,3.7 15.4,4.6 1.9,0.4 3.9,0.6 5.8,0.5 0.6,-0.1 1.2,-0.3 1.7,-0.7 0.3,3 0,6.1 0.1,9.1 0,21 0,42 0,63 v 0.2 c 1.3,0 2.2,0.1 3.1,0.2 5.5,0 11,0 16.5,0 0,0 0,0 0,0 -5.4,0 -11,0 -16.5,0 z"
     id="path1043" /><path
     class="st2"
     d="m 229.4,98.1 c 11.1,22.3 13.4,42.9 4.7,47.9 -8.7,5 -25.3,-7.3 -39.1,-28 l -0.3,0.1 v 0 l -0.3,0.2 c 11.1,22.3 13.4,42.9 4.8,47.9 -8.6,5 -25.3,-7.3 -39.1,-28 l -0.3,0.1 32.1,55.5 34.9,-20.1 v 0 L 261.7,153.6 229.6,98 Z"
     id="path1045" /><path
     class="st3"
     d="m 119.8,424.1 h 328.7 c 27.9,0 50.6,19.68207 50.6,44.06694 v 0 c 0,24.29778 -22.6,44.06694 -50.6,44.06694 H 119.8 c -27.9,0 -50.6,-19.68207 -50.6,-44.06694 v 0 C 69.2,443.86916 91.9,424.1 119.8,424.1 Z"
     id="path1047"
     style="fill:#e00043;fill-opacity:1;stroke-width:0.933214" /><g
     id="g1661"
     transform="matrix(0.79907341,0,0,0.79907341,60.591484,88.359857)"><text
       transform="translate(145.1,505.7)"
       class="st2 st4 st5 st6"
       id="text1049"><tspan
         style="font-style:normal;font-variant:normal;font-weight:bold;font-stretch:normal;font-family:Jost;-inkscape-font-specification:'Jost Bold'"
         id="tspan908">Wi</tspan></text><text
       transform="translate(244.38,505.7)"
       class="st2 st4 st5 st7"
       id="text1051"><tspan
         style="font-style:normal;font-variant:normal;font-weight:bold;font-stretch:normal;font-family:Jost;-inkscape-font-specification:'Jost Bold'"
         id="tspan910">r</tspan></text><text
       transform="translate(268.46,505.7)"
       class="st2 st4 st5 st6"
       id="text1053"><tspan
         style="font-style:normal;font-variant:normal;font-weight:bold;font-stretch:normal;font-family:Jost;-inkscape-font-specification:'Jost Bold'"
         id="tspan906">.MD</tspan></text><text
       xml:space="preserve"
       style="font-style:normal;font-variant:normal;font-weight:normal;font-stretch:normal;font-size:50.058px;line-height:1.25;font-family:'Futura Stencil ICG';-inkscape-font-specification:'Futura Stencil ICG';letter-spacing:0px;word-spacing:0px;fill:#000000;fill-opacity:1;stroke:none;stroke-width:1.25145"
       x="-175.51953"
       y="195.57901"
       id="text914"><tspan
         sodipodi:role="line"
         id="tspan912"
         x="-175.51953"
         y="195.57901"
         style="stroke-width:1.25145" /></text><text
       transform="translate(145.1,505.7)"
       class="st2 st4 st5 st6"
       id="text918"><tspan
         style="font-style:normal;font-variant:normal;font-weight:bold;font-stretch:normal;font-family:Jost;-inkscape-font-specification:'Jost Bold'"
         id="tspan916">Wi</tspan></text><text
       transform="translate(244.38,505.7)"
       class="st2 st4 st5 st7"
       id="text922"><tspan
         style="font-style:normal;font-variant:normal;font-weight:bold;font-stretch:normal;font-family:Jost;-inkscape-font-specification:'Jost Bold'"
         id="tspan920">r</tspan></text><text
       transform="translate(268.46,505.7)"
       class="st2 st4 st5 st6"
       id="text926"><tspan
         style="font-style:normal;font-variant:normal;font-weight:bold;font-stretch:normal;font-family:Jost;-inkscape-font-specification:'Jost Bold'"
         id="tspan924">.MD</tspan></text><text
       xml:space="preserve"
       style="font-style:normal;font-variant:normal;font-weight:normal;font-stretch:normal;font-size:50.058px;line-height:1.25;font-family:'Futura Stencil ICG';-inkscape-font-specification:'Futura Stencil ICG';letter-spacing:0px;word-spacing:0px;fill:#000000;fill-opacity:1;stroke:none;stroke-width:1.25145"
       x="-175.51953"
       y="195.57901"
       id="text930"><tspan
         sodipodi:role="line"
         id="tspan928"
         x="-175.51953"
         y="195.57901"
         style="stroke-width:1.25145" /></text></g><circle
     class="st1"
     cx="277.5"
     cy="283"
     id="circle932"
     style="fill:#e00043;fill-opacity:1"
     r="209.60001" /><path
     class="st2"
     d="m 280.8,170.2 c 11.1,-0.4 22.1,0.9 32.8,3.8 2.2,0.6 4.3,1.3 6.4,2.1 7.4,3.4 13.7,8.7 18.3,15.3 4.9,7.2 8.1,15.4 9.5,23.9 0.8,5 1.3,10.1 1.2,15.2 0.1,19.5 0.1,39 0.1,58.6 -0.1,5.6 0.1,11.1 0.6,16.7 0.4,5.3 1.4,10.6 3,15.6 1.2,3.9 3,7.5 5.4,10.8 0.6,0.9 1.4,1.6 2,2.5 -8,-1.7 -15.6,-5.3 -22.1,-10.4 -5.7,-4.6 -9.9,-10.7 -12.2,-17.7 -1.6,-4.9 -2.4,-10.1 -2.3,-15.2 0,-18.2 0,-36.4 0,-54.6 0,-9.9 -2,-19.7 -5.9,-28.8 -3.2,-7.2 -7.5,-13.9 -12.8,-19.6 -6.7,-7.2 -14.6,-13.3 -23.4,-17.8 z"
     id="path934" /><path
     class="st2"
     d="m 267.5,171.6 c 1.5,-0.3 3.1,-0.5 4.6,-0.6 3.2,1.2 6.2,2.6 9.2,4.2 7,3.8 13.3,8.6 18.9,14.3 6,6.2 10.8,13.4 14.1,21.4 3.5,8.8 5.2,18.2 5,27.6 0,18.2 0,36.4 0,54.5 0.1,5.7 1.1,11.3 3.1,16.7 0.9,2.3 2,4.6 3.2,6.8 -4.4,-0.8 -8.5,-2.5 -12.2,-4.9 -5.4,-3.7 -9.6,-8.9 -12.1,-15 -2,-4.7 -3.4,-9.6 -4.2,-14.6 -1,-6.2 -1.4,-12.5 -1.4,-18.9 -0.2,-3.7 -0.2,-7.4 -0.2,-11.1 -0.2,-6.3 -0.2,-12.6 -0.4,-18.9 -0.3,-8.9 -2.7,-17.6 -6.8,-25.4 -3.4,-6.4 -7.9,-12.1 -13.1,-17 -6.2,-5.7 -13.2,-10.5 -20.8,-14.2 -0.9,-0.4 -1.8,-0.8 -2.6,-1.4 5.1,-1.4 10.3,-2.7 15.7,-3.5 z"
     id="path936" /><path
     class="st2"
     d="m 245.3,177.6 c 0.6,-0.3 1.2,0.1 1.7,0.3 8,3.3 15.4,7.7 22.1,13.1 5.8,4.7 10.7,10.4 14.5,16.8 4.6,8 7.2,17 7.4,26.2 0.2,11.2 0.5,22.4 0.7,33.6 0.1,7.7 1.2,15.4 3.1,22.8 -7,-1.7 -13.2,-5.6 -17.6,-11.3 -5.4,-6.7 -8.5,-15 -10,-23.4 -0.5,-2.9 -0.8,-5.9 -1,-8.8 0,-6.3 0,-12.6 -0.5,-18.8 -0.7,-8.4 -2.5,-16.9 -7.1,-24 -4.6,-7.1 -11.2,-12.3 -18.3,-16.5 -2.5,-1.5 -5.1,-2.8 -7.7,-4.2 4.2,-2.1 8.4,-4.1 12.7,-5.8 z"
     id="path938" /><path
     class="st2"
     d="m 337.4,183.9 c 1.5,0.7 2.9,1.5 4.2,2.4 7.7,4.7 14.7,10.4 21,16.9 0.5,0.5 0.4,1.2 0.5,1.8 2.1,17.4 -1.1,35 -9.1,50.5 -0.2,0.6 -0.6,1.1 -1,1.5 0,-6.7 0,-13.4 0,-20 0,-5.5 0.1,-11 -0.5,-16.4 -1,-10 -3.8,-19.9 -9.1,-28.5 -1.8,-3 -3.8,-5.7 -6,-8.2 z"
     id="path940" /><path
     class="st2"
     d="m 228.1,185.9 c 7.4,3.5 14.8,7.5 20.9,13.1 4.8,4.4 8.4,10 10.2,16.3 -1.8,-0.1 -3.5,-0.4 -5.2,-0.8 -8.2,-2 -16,-5.5 -22.9,-10.5 -4.7,-3.3 -8.8,-7.5 -11.9,-12.4 2.9,-2 5.9,-3.9 8.9,-5.7 z"
     id="path942" /><path
     class="st2"
     d="m 205.6,202.3 c 3.3,-2.9 6.7,-5.7 10.3,-8.3 4.5,6.7 10.5,12.3 17.6,16.4 7.4,4.5 15.6,7.5 24.2,8.9 0.9,0.1 1.9,0.2 2.8,0.4 0.4,1.7 0.8,3.4 0.9,5.2 0.2,1.5 0.4,3.1 0.5,4.7 -10,-0.1 -19.9,-2.2 -29.2,-6 C 221.8,219.1 212,212 205.6,202.3 Z"
     id="path944" /><path
     class="st2"
     d="m 197.3,210.3 c 1.7,-1.8 3.4,-3.5 5.1,-5.1 2.8,4 6,7.6 9.6,10.8 -3.5,0.1 -7,-0.6 -10.3,-1.9 -1.7,-0.7 -3.3,-1.6 -4.8,-2.8 -0.3,-0.4 0.2,-0.8 0.4,-1 z"
     id="path946" /><path
     class="st2"
     d="m 194,214.1 c 5.5,4.2 12.3,6.3 19.3,5.8 1.1,0 2.3,-0.3 3.4,-0.4 1.1,0.6 2.1,1.4 3.2,2.1 1.8,1.2 3.7,2.1 5.5,3.2 -5,1.8 -10.2,2.6 -15.5,2.2 -7,-0.4 -14.2,-2.5 -19.6,-7.2 1,-2 2.3,-3.9 3.7,-5.7 z"
     id="path948" /><path
     class="st2"
     d="m 188.6,223.9 c 2.7,2.1 5.7,3.7 8.9,4.9 5.4,1.9 11.1,2.7 16.9,2.4 5.4,-0.2 10.7,-1.5 15.5,-3.8 0.3,-0.2 0.7,-0.2 1,-0.1 9.8,4 20.4,6.2 31,6.3 0.3,3.8 0.2,7.6 0.2,11.4 -19.6,0 -39.2,0 -58.8,0 -4,-6.8 -9.1,-13 -15.7,-17.4 0.4,-1.2 0.7,-2.4 1,-3.7 z"
     id="path950" /><path
     class="st2"
     d="m 154.6,229.2 c 7,-2.7 14.9,-3.7 22.2,-1.7 6.8,1.8 12.7,6.2 17.2,11.5 1.7,1.9 3.2,4 4.5,6.1 -3.8,0 -7.6,0 -11.3,0 -0.7,0 -1.3,0 -2,-0.1 l -32.6,-8 c -2.9,-0.7 -5.9,-1.4 -8.8,-2.2 3.3,-2.3 7,-4.2 10.8,-5.6 z"
     id="path952" /><path
     class="st2"
     d="m 160.7,247.1 c 1.3,-1.1 2.7,-2 4.2,-2.7 1,0 2,0.2 3,0.6 5.2,1.3 10.3,2.6 15.5,3.8 0.1,1.8 0.1,3.7 0,5.5 -3,1.3 -6,2.7 -9,3.9 -1,-1.2 -2.3,-2.3 -3.7,-3.1 -2.1,-1.3 -4.6,-1.8 -6.9,-2.5 -2.3,-0.7 -4.4,-1.3 -6.6,-2 1.1,-1.5 2.2,-2.6 3.5,-3.5 z"
     id="path954" /><path
     class="st2"
     d="m 362.7,246.2 c 0.8,0.6 1.4,1.3 2,2.1 2.8,3.9 4.1,8.7 5,13.3 0.8,4.3 1.2,8.6 1.2,12.9 v 56.9 c 0.1,2.3 0,4.6 -0.1,6.9 -1.4,-1.9 -3.6,-2.8 -5.3,-4.3 -2.9,-2.4 -5.3,-5.5 -6.9,-8.9 -1.9,-4.2 -3.3,-8.6 -4,-13.1 -1.8,-10.3 -1.4,-20.8 -1.5,-31.1 v -15.3 c 0,-0.5 0.1,-0.9 0.4,-1.3 3.8,-5.7 6.9,-11.8 9.2,-18.1 z"
     id="path956" /><path
     class="st2"
     d="m 187.5,249.3 c 5.9,-0.1 11.7,0 17.6,-0.1 h 15.8 c -0.1,4.7 0.5,9.3 1.7,13.9 1,3.9 2.6,7.6 4.7,11.1 3.3,5.5 7.9,10 13.3,13.2 1.4,0.9 3.1,1.4 4.4,2.5 -3.8,6.5 -8.9,12.1 -15,16.5 -3.7,2.7 -7.7,5 -11.8,7 -0.9,0.4 -1.4,1.2 -1.4,2.2 v 20 c 0,3.4 1.6,6.6 4.2,8.7 0.7,0.6 1.5,1.1 2.3,1.6 -2,3.7 -4.8,6.9 -8.4,9.2 -5.3,3.3 -11.4,4.8 -17.6,4.4 -0.4,0 -0.7,-0.3 -1,-0.6 -2.9,-3.1 -5,-6.9 -6.2,-11 -1.9,-6.1 -2.7,-12.5 -2.4,-18.9 -0.2,-26.5 -0.1,-53.1 -0.2,-79.7 m 22.6,27.2 c -0.8,0.4 -1.2,1.2 -1.2,2 v 9.9 c 0.1,2 -1.1,4.3 -3.2,4.6 -1.1,0.3 -1.7,1.4 -1.4,2.5 0.1,0.2 0.2,0.5 0.3,0.7 0.7,0.8 1.8,1.1 2.8,0.7 3.4,-1.1 5.7,-4.7 5.7,-8.2 0,-3.5 0,-6.9 0,-10.4 0,-1.1 -1,-2 -2.2,-2 -0.3,0 -0.5,0.1 -0.8,0.2 z"
     id="path958" /><path
     class="st2"
     d="m 220.8,249.2 c 5.3,0 10.5,0 15.7,0 0.2,4.3 1.4,8.6 3.4,12.5 1.9,3.6 4.5,6.7 7.8,9.2 1.2,1 2.7,1.7 3.8,2.8 -1.5,5.7 -3.7,11.1 -6.6,16.2 -1.3,-1.1 -3,-1.6 -4.4,-2.5 -5.5,-3.2 -10.1,-7.8 -13.3,-13.2 -2.1,-3.5 -3.6,-7.2 -4.7,-11.1 -1.2,-4.5 -1.8,-9.2 -1.7,-13.9 z"
     id="path960" /><path
     class="st2"
     d="m 236.5,249.2 c 5.9,0 11.8,-0.1 17.7,0 0.1,8.2 -0.8,16.5 -2.8,24.5 -1.1,-1.1 -2.6,-1.8 -3.8,-2.8 -3.2,-2.5 -5.9,-5.6 -7.8,-9.2 -1.9,-3.9 -3.1,-8.1 -3.3,-12.5 z"
     id="path962" /><path
     class="st2"
     d="m 149.8,263 c 1.7,-4.6 4.2,-8.9 7.4,-12.6 2.2,0.8 4.4,1.4 6.6,2 2.2,0.6 4.8,1.2 6.9,2.5 1.4,0.8 2.6,1.9 3.7,3.1 -7,3.2 -14.1,6.2 -21.1,9.3 -1.8,0.7 -3.5,1.6 -5.4,2.3 0.4,-2.2 1.1,-4.5 1.9,-6.6 z"
     id="path964" /><path
     class="st2"
     d="m 266.7,269.3 c 2.7,7 7.1,13.2 12.8,18.1 4.8,4 10.6,6.7 16.8,7.7 2.5,6.8 6.4,13.3 12.1,18 5.5,4.4 12.1,7.2 19.1,8 0.7,0.1 1.6,0.1 2,0.8 5,5.8 11.2,10.3 18.3,13.2 5,2.1 10.1,3.6 15.4,4.6 1.9,0.4 3.9,0.6 5.9,0.5 0.6,-0.1 1.2,-0.3 1.8,-0.7 0.3,3.1 0,6.1 0.1,9.2 0,21 0,42 0,63 -1.3,-0.3 -2.6,-0.8 -3.8,-1.4 -7.5,-3.4 -14.5,-7.8 -20.8,-13.1 -11.6,-9.8 -20.8,-22.3 -26.7,-36.3 -4.6,-11.1 -7.5,-22.8 -8.4,-34.8 0,-1.2 -0.9,-2.1 -2.1,-2.1 -0.1,0 -0.2,0 -0.3,0 -1.1,0.2 -1.9,1.2 -1.8,2.3 1.5,18 6.8,35.8 16.5,51.1 3.5,5.5 7.6,10.7 12.1,15.5 -11.1,0.1 -22.1,-1 -33,-3.3 -8.9,-2 -17.8,-4.6 -25.7,-9.1 0,-2.4 0.1,-4.8 -1,-6.9 -1.9,-3.8 -6,-5.8 -10,-6.5 -1.3,-0.2 -2.9,-0.8 -3.9,0.4 -0.7,0.9 -0.6,2.2 0.3,2.9 0.3,0.2 0.6,0.4 0.9,0.4 2.2,0.2 4.3,0.8 6.2,1.8 1.9,1 3.1,2.8 3.3,4.9 v 21.6 c -0.1,1.4 1.1,2.1 2,3 6,5.6 13.3,9.7 21.2,12.1 5.2,1.5 10.6,2.5 16,2.8 0.7,0.1 1.3,-0.1 1.8,-0.5 0.9,-0.9 1.5,-2 2.4,-2.8 0.9,5.2 2.3,10.4 5.1,14.9 -3.9,1.4 -8,2.2 -12.1,2.5 -9.6,0.6 -19.2,-1 -28.1,-4.6 -7,-2.6 -13.5,-6.3 -19.4,-10.9 -6,-4.7 -11,-10.5 -14.9,-17.1 -3.8,-6.7 -6.6,-13.8 -8.3,-21.3 -2,-9.2 -3.1,-18.6 -3.1,-28 17.6,0 35.1,0 52.7,0 2.9,3.4 6.2,6.6 9.8,9.3 0.9,0.7 1.8,1.3 2.8,1.9 1.1,0.4 2.3,-0.1 2.7,-1.1 0.1,-0.3 0.2,-0.6 0.1,-0.9 0,-1 -0.9,-1.7 -1.7,-2.2 -6.4,-4.6 -11.9,-10.4 -16.1,-17.1 -4.5,-7.2 -8.1,-15 -10.7,-23.1 -3.9,-12.2 -6.4,-24.8 -7.6,-37.6 -0.3,-2.9 -0.7,-6 -0.7,-9.1 z"
     id="path966" /><path
     class="st2"
     d="m 321.3,407.2 c 5.1,1.7 10.1,3.7 15.1,5.5 1.3,0.4 2.5,0.9 3.7,1.5 -2.3,3.9 -5.3,7.2 -9,9.8 -1.8,1.3 -3.8,2.4 -5.8,3.3 -3.4,-5.1 -4.7,-11.2 -5.4,-17.2 -0.3,-1.3 0.8,-2.1 1.4,-2.9 z"
     id="path968" /><path
     class="st2"
     d="m 393.7,258 c -1.8,-15 -7,-29.3 -15.3,-41.9 -9.6,-14.5 -22.5,-26.6 -37.7,-35.2 -26.3,-15.2 -57.7,-18.9 -86.9,-10.5 -10.2,3 -19.9,7.2 -29,12.7 -9.6,5.7 -18.5,12.5 -26.5,20.3 -4,3.7 -7.6,7.9 -10.5,12.5 -1.8,3 -3.1,6.2 -3.9,9.6 -1.9,-0.9 -3.8,-1.6 -5.8,-2.2 -5.9,-1.6 -12,-1.6 -17.9,-0.2 -6.6,1.6 -12.9,4.3 -18.5,8 -1.5,0.9 -2.9,2 -4.2,3.1 -0.9,0.8 -1,2.1 -0.2,2.9 0,0 0,0 0,0.1 0.6,0.5 1.4,0.8 2.2,0.9 l 19.8,4.8 c -0.2,0.3 -0.5,0.5 -0.8,0.8 -1.8,1.4 -3.5,3 -4.9,4.7 -5,6.1 -8.4,13.4 -9.9,21.1 -0.3,1.3 -0.5,2.6 -0.6,3.9 0.1,1.1 1.1,2 2.2,1.9 0.2,0 0.5,-0.1 0.7,-0.2 12.5,-5.4 24.9,-11 37.4,-16.4 v 67 c 0,3.4 -0.1,6.9 0.2,10.3 0.4,6.1 1.9,12.1 4.3,17.7 1.6,3.5 3.9,6.7 6.7,9.2 0.8,0.5 1.8,0.8 2.7,0.7 6.3,0.3 12.6,-1.1 18.2,-4 5.7,-3.1 10.1,-8.1 12.6,-14.1 0.4,-1 -0.1,-2.2 -1.2,-2.6 0,0 0,0 -0.1,0 -1.7,-0.6 -3.2,-1.6 -4.3,-3 -1,-1.4 -1.6,-3.1 -1.5,-4.9 0,-5.8 0,-11.6 0,-17.4 0,-0.4 -0.1,-0.8 0.1,-1.1 0.9,-0.5 1.9,-1 2.8,-1.5 6.4,-3.3 12.2,-7.7 17.1,-12.9 5.7,-6.2 10.1,-13.6 12.8,-21.6 3.5,-10.1 4.7,-20.8 4.7,-31.4 1.2,0 2.4,0 3.6,0 -0.2,9.2 0.1,18.3 1,27.5 0.9,10.5 2.7,20.8 5.2,31 2.3,9.5 5.8,18.8 10.3,27.5 1.8,3.4 3.9,6.7 6.1,9.8 -17.1,0.1 -34.3,0 -51.4,0 -1,0 -1.8,0.7 -2,1.6 0,0.8 0,1.5 0,2.3 0.2,14 1.8,28.2 6.8,41.4 2.9,7.5 7.1,14.5 12.4,20.6 4.9,5.5 10.7,10.2 17.2,13.9 6.8,3.9 14,6.8 21.6,8.7 9,2.2 18.3,2.5 27.4,0.7 6.9,-1.3 13.3,-4.3 18.8,-8.7 3.9,-3.2 7.1,-7.2 9.3,-11.8 0.4,-1.1 -0.1,-2.3 -1.1,-2.7 0,0 -0.1,0 -0.1,0 -7.4,-2.7 -14.8,-5.4 -22.2,-8.1 -0.9,-0.4 -1.9,-0.1 -2.5,0.6 -2.5,3.1 -5,6.2 -7.4,9.3 -10.8,-0.7 -21.7,-4 -30.3,-10.6 -1.5,-1.1 -3,-2.4 -4.3,-3.8 0,-4.4 0,-8.8 0,-13.2 7.9,3.8 16.2,6.6 24.7,8.3 12.3,2.5 24.9,3.7 37.5,3.4 0.3,0 0.7,-0.1 1,0.2 8.3,7.7 18,13.8 28.6,18 H 394 V 258.1 Z m -5.4,-7.5 c -3.2,-15.3 -10.2,-29.7 -20.4,-41.6 0,0 0,0 0,0 10.3,11.9 17.3,26.3 20.4,41.6 z m -17.5,87.8 c -1.4,-1.8 -3.5,-2.8 -5.3,-4.2 -2.9,-2.4 -5.3,-5.5 -6.9,-8.9 -1.9,-4.2 -3.3,-8.6 -4,-13.1 -1.8,-10.3 -1.4,-20.8 -1.5,-31.1 v -15.3 c 0,-0.5 0.1,-0.9 0.4,-1.3 3.7,-5.7 6.8,-11.7 9.1,-18.1 0.8,0.6 1.4,1.3 1.9,2.1 2.8,4 4.1,8.7 5,13.3 0.8,4.3 1.2,8.6 1.2,12.9 v 56.9 c 0.2,2.2 0.4,4.5 0.1,6.8 z M 368,218.4 c 0,-0.6 0,-1.2 0,-1.8 0,0.6 0,1.2 0,1.8 -0.3,8.6 -1.8,17.1 -4.4,25.3 2.6,-8.2 4.1,-16.7 4.4,-25.3 z m -26.3,-32.1 v 0 c 7.7,4.8 14.7,10.4 21,16.9 0.5,0.5 0.4,1.2 0.5,1.8 2.1,17.4 -1.1,35 -9.2,50.5 -0.3,0.6 -0.6,1.1 -1,1.5 0,-6.7 0,-13.4 0,-20 0.1,-5.5 0,-11 -0.5,-16.4 -1,-10 -3.8,-20 -9.1,-28.6 -1.8,-2.8 -3.8,-5.5 -6,-8 1.5,0.6 2.9,1.4 4.3,2.3 z M 313.5,174 c 10.1,2.5 19,8.7 24.7,17.4 4.9,7.2 8.1,15.3 9.5,23.9 0.9,5 1.3,10.1 1.2,15.2 0.1,19.5 0.1,39.1 0.1,58.6 -0.1,5.6 0.1,11.1 0.6,16.7 0.4,5.3 1.4,10.6 3,15.6 1.2,3.9 3,7.5 5.4,10.8 0.6,0.9 1.4,1.6 2,2.5 -8.1,-1.7 -15.6,-5.3 -22.1,-10.4 -5.7,-4.6 -9.9,-10.7 -12.2,-17.7 -1.6,-4.9 -2.4,-10.1 -2.3,-15.3 0,-18.2 0,-36.4 0,-54.6 0,-9.9 -2,-19.7 -5.9,-28.8 -3.2,-7.2 -7.5,-13.9 -12.8,-19.6 -6.7,-7.2 -14.6,-13.3 -23.4,-17.8 -0.2,-0.1 -0.4,-0.3 -0.6,-0.4 11.1,-0.3 22.1,1 32.8,3.9 z m -46,-2.4 v 0 c 1.6,-0.3 3.1,-0.5 4.7,-0.5 3.2,1.2 6.2,2.6 9.2,4.2 7,3.8 13.3,8.6 18.9,14.3 6,6.2 10.8,13.4 14.1,21.4 3.5,8.8 5.2,18.2 5,27.6 0,18.2 0,36.4 0,54.5 0.1,5.7 1.1,11.3 3.1,16.7 0.9,2.3 2,4.6 3.3,6.8 -4.4,-0.8 -8.5,-2.5 -12.2,-4.9 -5.4,-3.7 -9.6,-8.9 -12.1,-15 -2,-4.7 -3.4,-9.6 -4.2,-14.6 -1,-6.2 -1.4,-12.5 -1.4,-18.8 -0.2,-3.7 -0.2,-7.4 -0.2,-11.1 -0.2,-6.3 -0.2,-12.6 -0.4,-18.8 -0.3,-8.9 -2.7,-17.6 -6.8,-25.5 -3.4,-6.4 -7.8,-12.1 -13.1,-17 -6.2,-5.7 -13.2,-10.5 -20.9,-14.2 -0.9,-0.4 -1.8,-0.8 -2.6,-1.4 5,-1.6 10.3,-2.9 15.6,-3.7 z m -39.3,14.3 c 7.4,3.5 14.8,7.5 20.9,13.1 4.8,4.4 8.4,10 10.2,16.3 -1.8,-0.1 -3.5,-0.4 -5.2,-0.8 -8.2,-2 -16,-5.5 -22.9,-10.5 -4.7,-3.3 -8.8,-7.5 -11.9,-12.4 2.9,-2 5.8,-3.9 8.9,-5.7 z m 5.2,24.5 c 7.4,4.5 15.6,7.5 24.1,8.9 0.9,0 1.9,0.2 2.8,0.4 0.4,1.7 0.7,3.4 0.9,5.2 0.2,1.5 0.4,3.1 0.5,4.7 -10,-0.1 -19.9,-2.2 -29.2,-6 -10.7,-4.4 -20.5,-11.5 -26.9,-21.2 3.3,-2.9 6.7,-5.7 10.3,-8.3 4.5,6.7 10.5,12.3 17.5,16.3 z m -36.1,-0.1 c 1.6,-1.8 3.4,-3.5 5.1,-5.2 2.8,4 6,7.6 9.7,10.7 -3.5,0.1 -7,-0.6 -10.3,-1.8 -1.7,-0.7 -3.3,-1.6 -4.8,-2.8 -0.4,-0.3 0.1,-0.7 0.3,-0.9 z m -3.3,3.8 c 5.5,4.3 12.3,6.3 19.3,5.8 1.1,0 2.3,-0.3 3.4,-0.4 1.1,0.6 2.1,1.5 3.2,2.1 1.8,1.2 3.7,2.1 5.5,3.2 -5,1.8 -10.2,2.6 -15.5,2.2 -7,-0.4 -14.2,-2.5 -19.6,-7.2 1,-2 2.3,-3.9 3.7,-5.7 z m -10.6,40.1 v 0 c -3,1.3 -6,2.7 -9,3.9 -7,3.2 -14.1,6.2 -21.1,9.3 -1.8,0.7 -3.5,1.6 -5.4,2.3 0.5,-2.3 1.1,-4.5 2,-6.7 1.7,-4.6 4.2,-8.9 7.4,-12.5 1,-1.3 2.2,-2.4 3.5,-3.4 1.3,-1 2.7,-1.9 4.1,-2.7 1,0 2,0.2 3,0.5 5.2,1.2 10.4,2.6 15.5,3.8 0,1.8 0,3.7 0,5.5 z m 1.8,-9.2 v 0 c -10.9,-2.7 -21.8,-5.4 -32.7,-8 -2.9,-0.7 -5.8,-1.4 -8.7,-2.2 3.4,-2.3 7,-4.2 10.8,-5.6 7,-2.7 14.9,-3.7 22.3,-1.7 6.8,1.8 12.7,6.2 17.2,11.5 1.7,1.9 3.2,4 4.5,6.1 -3.8,0 -7.6,0 -11.3,0 -0.8,0 -1.5,0 -2.1,-0.1 z m 66.3,28.7 v 0 c -1.5,5.7 -3.7,11.1 -6.7,16.2 -3.8,6.5 -8.8,12.1 -14.9,16.5 -3.7,2.6 -7.7,5 -11.8,7 -0.9,0.4 -1.4,1.2 -1.4,2.2 0,6.7 0,13.3 0,20 0.1,3.4 1.6,6.6 4.2,8.7 0.7,0.6 1.5,1.1 2.3,1.6 -2,3.7 -4.8,6.9 -8.4,9.2 -5.3,3.2 -11.4,4.8 -17.6,4.4 -0.4,0 -0.7,-0.3 -1,-0.6 -2.9,-3.1 -5.1,-6.9 -6.3,-11 -1.9,-6.1 -2.7,-12.5 -2.5,-18.9 0,-26.6 0,-53.1 0,-79.7 5.8,-0.1 11.7,0 17.6,-0.1 5.2,0 10.5,0 15.8,0 5.3,0 10.5,0 15.7,0 5.9,0 11.8,0 17.7,0 0.2,8.2 -0.7,16.5 -2.7,24.5 z m -48.1,-28.6 v 0 c -4,-6.8 -9.2,-13 -15.8,-17.4 0.3,-1.3 0.6,-2.5 1,-3.7 2.7,2 5.7,3.7 8.9,4.9 5.4,1.9 11.1,2.8 16.9,2.4 5.4,-0.2 10.7,-1.5 15.5,-3.8 0.3,-0.2 0.7,-0.3 1,-0.1 9.8,4.1 20.4,6.2 31,6.3 0.3,3.8 0.2,7.6 0.2,11.4 -19.5,0 -39.1,0 -58.7,0 z m 62.4,-16.9 v 0 c -0.7,-8.4 -2.5,-16.9 -7.1,-24 -4.6,-7.1 -11.2,-12.3 -18.3,-16.5 -2.5,-1.5 -5.1,-2.8 -7.7,-4.2 4.1,-2.2 8.3,-4.2 12.6,-5.8 0.6,-0.3 1.2,0.1 1.7,0.3 8,3.3 15.4,7.7 22.1,13.1 5.8,4.7 10.7,10.4 14.5,16.8 4.6,7.9 7.2,16.9 7.5,26.1 0.2,11.2 0.5,22.4 0.7,33.6 0.1,7.7 1.2,15.4 3.1,22.8 -7,-1.7 -13.2,-5.6 -17.6,-11.3 -5.4,-6.7 -8.5,-15 -10,-23.4 -0.5,-2.9 -0.8,-5.9 -1,-8.8 0,-6.2 0.1,-12.5 -0.5,-18.7 z m 55.4,179 c 5.1,1.7 10.1,3.7 15.1,5.4 1.3,0.4 2.5,0.9 3.7,1.5 -2.3,3.9 -5.3,7.2 -9,9.7 v 0 c -1.8,1.3 -3.8,2.4 -5.8,3.3 -3.4,-5.1 -4.7,-11.2 -5.4,-17.2 -0.3,-1.1 0.9,-1.8 1.4,-2.7 z m 52.4,5 c -0.9,0 -1.9,-0.2 -2.8,-0.4 v -0.2 c -1.3,-0.3 -2.6,-0.8 -3.8,-1.3 -7.5,-3.4 -14.5,-7.8 -20.8,-13.1 -11.6,-9.8 -20.8,-22.3 -26.7,-36.3 -4.6,-11.1 -7.5,-22.8 -8.5,-34.8 0,-1.2 -0.9,-2.1 -2.1,-2.1 -0.1,0 -0.2,0 -0.3,0 -1.1,0.2 -1.9,1.2 -1.8,2.3 1.5,18 6.8,35.8 16.5,51.1 3.5,5.5 7.6,10.7 12.1,15.5 -11.1,0.1 -22.1,-1 -33,-3.3 -8.9,-1.9 -17.7,-4.6 -25.7,-9.1 0,-2.3 0.1,-4.8 -1,-6.9 -1.9,-3.8 -6,-5.8 -10,-6.5 -1.3,-0.2 -2.9,-0.8 -3.9,0.4 -0.7,0.9 -0.6,2.2 0.2,2.9 0.3,0.2 0.6,0.4 0.9,0.5 2.2,0.2 4.3,0.8 6.3,1.8 1.8,1 3.1,2.8 3.3,4.9 v 21.7 c -0.1,1.3 1.2,2.1 2,3 6.1,5.6 13.3,9.8 21.3,12.1 5.2,1.6 10.6,2.5 16,2.8 0.7,0.1 1.3,-0.1 1.8,-0.5 0.9,-0.9 1.5,-1.9 2.3,-2.8 0.8,5.2 2.5,10.3 5.1,14.9 -3.9,1.4 -8,2.2 -12.1,2.5 v 0 c -9.6,0.6 -19.2,-1 -28.1,-4.6 -7,-2.6 -13.5,-6.3 -19.4,-10.9 -6,-4.7 -11,-10.5 -14.9,-17.1 -3.8,-6.7 -6.6,-13.8 -8.3,-21.3 -2,-9.2 -3.1,-18.6 -3.1,-28 17.6,0 35.1,0 52.6,0 2.9,3.5 6.2,6.6 9.8,9.3 0.9,0.7 1.8,1.3 2.8,1.9 1.1,0.4 2.3,-0.1 2.7,-1.2 0.1,-0.3 0.2,-0.6 0.1,-0.8 0,-1 -1,-1.7 -1.7,-2.2 -6.4,-4.6 -11.9,-10.4 -16.1,-17.1 -4.5,-7.2 -8.1,-15 -10.6,-23.1 -3.9,-12.2 -6.4,-24.8 -7.6,-37.6 -0.3,-3.1 -0.6,-6.1 -0.7,-9.2 2.7,7 7.1,13.2 12.8,18.1 4.8,4 10.6,6.7 16.8,7.7 2.5,6.8 6.4,13.3 12.1,18 5.5,4.4 12.1,7.2 19.1,8 0.7,0.1 1.6,0.1 2,0.8 5,5.8 11.3,10.3 18.3,13.3 4.9,2.1 10.1,3.7 15.4,4.6 1.9,0.4 3.9,0.6 5.8,0.5 0.6,-0.1 1.2,-0.3 1.7,-0.7 0.3,3 0,6.1 0.1,9.1 0,21 0,42 0,63 v 0.2 c 1.3,0 2.2,0.1 3.1,0.2 5.5,0 11,0 16.5,0 0,0 0,0 0,0 -5.4,0 -11,0 -16.5,0 z"
     id="path970" /><path
     class="st2"
     d="m 229.4,98.1 c 11.1,22.3 13.4,42.9 4.7,47.9 -8.7,5 -25.3,-7.3 -39.1,-28 l -0.3,0.1 v 0 l -0.3,0.2 c 11.1,22.3 13.4,42.9 4.8,47.9 -8.6,5 -25.3,-7.3 -39.1,-28 l -0.3,0.1 32.1,55.5 34.9,-20.1 v 0 L 261.7,153.6 229.6,98 Z"
     id="path972" /><path
     class="st3"
     d="m 119.8,424.1 h 328.7 c 27.9,0 50.6,19.68207 50.6,44.06694 v 0 c 0,24.29778 -22.6,44.06694 -50.6,44.06694 H 119.8 c -27.9,0 -50.6,-19.68207 -50.6,-44.06694 v 0 C 69.2,443.86916 91.9,424.1 119.8,424.1 Z"
     id="path974"
     style="fill:#891f7d;fill-opacity:1;stroke-width:0.933214" /><g
     id="g1008"
     transform="matrix(0.79907341,0,0,0.79907341,60.591484,88.359857)"><text
       transform="translate(145.1,505.7)"
       class="st2 st4 st5 st6"
       id="text978"><tspan
         style="font-style:normal;font-variant:normal;font-weight:bold;font-stretch:normal;font-family:Jost;-inkscape-font-specification:'Jost Bold'"
         id="tspan976">Wi</tspan></text><text
       transform="translate(244.38,505.7)"
       class="st2 st4 st5 st7"
       id="text982"><tspan
         style="font-style:normal;font-variant:normal;font-weight:bold;font-stretch:normal;font-family:Jost;-inkscape-font-specification:'Jost Bold'"
         id="tspan980">r</tspan></text><text
       transform="translate(268.46,505.7)"
       class="st2 st4 st5 st6"
       id="text986"><tspan
         style="font-style:normal;font-variant:normal;font-weight:bold;font-stretch:normal;font-family:Jost;-inkscape-font-specification:'Jost Bold'"
         id="tspan984">.MD</tspan></text><text
       xml:space="preserve"
       style="font-style:normal;font-variant:normal;font-weight:normal;font-stretch:normal;font-size:50.058px;line-height:1.25;font-family:'Futura Stencil ICG';-inkscape-font-specification:'Futura Stencil ICG';letter-spacing:0px;word-spacing:0px;fill:#000000;fill-opacity:1;stroke:none;stroke-width:1.25145"
       x="-175.51953"
       y="195.57901"
       id="text990"><tspan
         sodipodi:role="line"
         id="tspan988"
         x="-175.51953"
         y="195.57901"
         style="stroke-width:1.25145" /></text><g
       aria-label="Wi"
       transform="translate(145.1,505.7)"
       id="text994"
       style="font-size:80px;font-family:Jost-Bold;letter-spacing:-4;fill:#ffffff"
       class="st2 st4 st5 st6"><path
         d="M 57.92,-24.08 42.56,-58.8 27.36,-24.08 16.32,-56 h -16 L 24.56,3.28 42.56,-30.48 60.64,3.28 84.88,-56 H 68.8 Z"
         style="font-style:normal;font-variant:normal;font-weight:bold;font-stretch:normal;font-family:Jost;-inkscape-font-specification:'Jost Bold'"
         id="path1550" /><path
         d="m 85.19989,-50.64 q 0,2.88 2.08,4.72 2.08,1.84 4.96,1.84 2.96,0 4.96,-1.84 2.08,-1.84 2.08,-4.72 0,-2.88 -2.08,-4.64 -2,-1.84 -4.96,-1.84 -2.88,0 -4.96,1.84 -2.08,1.76 -2.08,4.64 z m 1.2,13.84 V 0 h 11.68 v -36.8 z"
         style="font-style:normal;font-variant:normal;font-weight:bold;font-stretch:normal;font-family:Jost;-inkscape-font-specification:'Jost Bold'"
         id="path1552" /></g><text
       transform="translate(244.38,505.7)"
       class="st2 st4 st5 st7"
       id="text998"><tspan
         style="font-style:normal;font-variant:normal;font-weight:bold;font-stretch:normal;font-family:Jost;-inkscape-font-specification:'Jost Bold'"
         id="tspan996">r</tspan></text><g
       aria-label=".MD"
       transform="translate(268.46,505.7)"
       id="text1002"
       style="font-size:80px;font-family:Jost-Bold;letter-spacing:-4;fill:#ffffff"
       class="st2 st4 st5 st6"><path
         d="m 5.36,-5.44 q 0,3.04 2.16,5.2 2.16,2.16 5.36,2.16 3.36,0 5.44,-2.16 2.08,-2.16 2.08,-5.2 0,-3.04 -2.08,-5.2 -2.08,-2.16 -5.44,-2.16 -3.2,0 -5.36,2.16 -2.16,2.16 -2.16,5.2 z"
         style="font-style:normal;font-variant:normal;font-weight:bold;font-stretch:normal;font-family:Jost;-inkscape-font-specification:'Jost Bold'"
         id="path1543" /><path
         d="m 42.079888,-28.56 15.28,23.36 15.36,-23.36 3.36,28.56 h 14.24 l -9.04,-58.8 -23.92,34.16 -23.84,-34.16 -9.04,58.8 h 14.24 z"
         style="font-style:normal;font-variant:normal;font-weight:bold;font-stretch:normal;font-family:Jost;-inkscape-font-specification:'Jost Bold'"
         id="path1545" /><path
         d="M 94.959795,-56 V 0 H 108.87979 V -56 Z M 114.95979,0 q 9.2,0 15.92,-3.44 6.72,-3.44 10.4,-9.68 3.68,-6.32 3.68,-14.88 0,-8.64 -3.68,-14.88 -3.68,-6.24 -10.4,-9.68 -6.72,-3.44 -15.92,-3.44 h -11.04 v 12 h 10.56 q 3.2,0 6.16,0.8 3.04,0.8 5.28,2.64 2.32,1.84 3.68,4.96 1.36,3.04 1.36,7.6 0,4.56 -1.36,7.68 -1.36,3.04 -3.68,4.88 -2.24,1.84 -5.28,2.64 -2.96,0.8 -6.16,0.8 h -10.56 V 0 Z"
         style="font-style:normal;font-variant:normal;font-weight:bold;font-stretch:normal;font-family:Jost;-inkscape-font-specification:'Jost Bold'"
         id="path1547" /></g><text
       xml:space="preserve"
       style="font-style:normal;font-variant:normal;font-weight:normal;font-stretch:normal;font-size:50.058px;line-height:1.25;font-family:'Futura Stencil ICG';-inkscape-font-specification:'Futura Stencil ICG';letter-spacing:0px;word-spacing:0px;fill:#000000;fill-opacity:1;stroke:none;stroke-width:1.25145"
       x="-175.51953"
       y="195.57901"
       id="text1006"><tspan
         sodipodi:role="line"
         id="tspan1004"
         x="-175.51953"
         y="195.57901"
         style="stroke-width:1.25145" /></text></g></g>
	<g
   id="g1523"
   transform="matrix(1.1467228,-0.24798816,0.24798816,1.1467228,-199.94424,-0.48611793)"
   inkscape:export-filename="/home/ben/Dev/franka.jetzt/affinity/apps/wir-md/assets/app-logo-2.png"
   inkscape:export-xdpi="227.97774"
   inkscape:export-ydpi="227.97774"><path
     style="fill:#000000;fill-opacity:1;stroke-width:0.386015"
     d="m 332.7846,536.70549 c -0.37448,0 -0.90906,-0.60599 -1.27699,-1.44758 -0.47296,-1.08183 -0.68776,-3.17411 -0.85016,-8.28134 -0.14833,-4.66471 -0.36922,-6.98571 -0.69595,-7.31245 -0.38086,-0.38086 -0.7238,-0.24653 -1.67854,0.65754 -0.65993,0.62491 -1.94272,2.17846 -2.85064,3.4523 -0.90792,1.27386 -2.03728,3.09777 -2.50971,4.05317 -0.47244,0.95538 -1.65957,2.56218 -2.63813,3.57063 -0.97852,1.00847 -1.92482,1.83357 -2.10287,1.83357 -0.17804,0 -0.59181,-0.64162 -0.91946,-1.4258 -0.44707,-1.06998 -0.55251,-2.34643 -0.4225,-5.11471 0.0953,-2.0289 0.0563,-4.02055 -0.0867,-4.42592 -0.22034,-0.62475 -0.52687,-0.38958 -2.01241,1.54408 -0.96388,1.25458 -2.37089,3.24953 -3.12672,4.43319 -0.75583,1.18367 -2.01315,2.71309 -2.79403,3.39872 -0.7809,0.68564 -1.70694,1.19369 -2.05789,1.12902 -0.35094,-0.0646 -0.94782,-0.75109 -1.32639,-1.52537 -0.4083,-0.8351 -0.83484,-3.03346 -1.04853,-5.4042 -0.19812,-2.19805 -0.36608,-6.43903 -0.37323,-9.42439 -0.0117,-5.01538 0.0495,-5.49504 0.80959,-6.3109 0.6476,-0.69512 1.07764,-0.83193 2.02141,-0.64319 0.65935,0.13188 1.4617,0.50436 1.783,0.82774 0.47405,0.47712 0.5842,1.7844 0.5842,6.93316 0,3.50755 0.15805,6.39125 0.35342,6.4482 0.19438,0.0566 1.18939,-0.93923 2.2111,-2.2131 1.02174,-1.27384 2.58408,-3.31856 3.47187,-4.54378 0.8878,-1.22524 2.00198,-2.32506 2.476,-2.44402 0.47401,-0.11891 1.37721,0.0501 2.0071,0.37593 0.62989,0.32573 1.329,1.07811 1.55357,1.67198 0.22457,0.59385 0.50217,1.75266 0.61689,2.57513 0.11467,0.82246 0.31679,1.60361 0.44907,1.7359 0.13232,0.13232 1.8067,-1.45261 3.72092,-3.52197 3.28647,-3.55283 3.56649,-3.76249 5.02533,-3.76249 1.22138,0 1.77319,0.24433 2.6347,1.1666 0.66122,0.70783 1.25438,1.93417 1.50837,3.11849 0.23022,1.07353 0.51007,4.41355 0.62184,7.42225 0.11176,3.00871 0.28898,6.13761 0.39377,6.95313 0.17035,1.32566 0.0307,1.64267 -1.3183,2.99162 -0.82987,0.82989 -1.7987,1.50886 -2.15298,1.50886 z m 133.35371,-1.93566 c -2.07637,1.04816 -2.27472,1.07999 -3.32906,0.53441 -0.61665,-0.31907 -1.52919,-0.95943 -2.02791,-1.42302 -0.49869,-0.4636 -1.30241,-1.62457 -1.78601,-2.57995 -0.4836,-0.95539 -1.00088,-2.29964 -1.14954,-2.9872 -0.14864,-0.68757 -0.44063,-1.35542 -0.64885,-1.48411 -0.20824,-0.12868 -1.02387,0.19302 -1.81251,0.71493 -0.78865,0.5219 -2.19888,1.33918 -3.13385,1.81616 -1.25228,0.63887 -2.13114,0.81863 -3.33747,0.68267 -0.90064,-0.10154 -2.28077,-0.58212 -3.06694,-1.068 -0.78618,-0.48588 -1.92219,-1.66048 -2.5245,-2.61021 -0.60229,-0.94973 -1.20893,-2.4859 -1.34807,-3.41372 -0.13919,-0.92781 -0.13379,-2.48213 0.0117,-3.45406 0.18675,-1.24532 0.66684,-2.21192 1.62589,-3.27348 0.78658,-0.87066 1.95576,-1.67158 2.77046,-1.89787 0.77524,-0.21533 2.43276,-0.39248 3.68337,-0.39367 1.55311,-0.002 2.79722,0.25926 3.92523,0.82261 1.65142,0.82477 1.65142,0.82477 2.69995,0 0.57668,-0.45362 1.43243,-0.82475 1.90166,-0.82475 0.46924,0 1.18255,0.36398 1.58517,0.80886 0.52623,0.58148 0.79614,1.63947 0.96012,3.76366 0.12547,1.62512 0.69155,4.4565 1.25796,6.29196 0.62112,2.01269 1.39908,3.69255 1.96014,4.23255 0.51161,0.49243 1.51043,1.08974 2.21951,1.32734 0.70906,0.23759 1.49136,0.83316 1.73842,1.32348 0.24705,0.49031 0.35547,1.13569 0.24094,1.43417 -0.11452,0.29848 -1.20181,1.04423 -2.41614,1.65724 z m -14.71003,-10.03734 c 0.72637,0.003 1.63833,-0.28098 2.02659,-0.63234 0.38826,-0.35137 0.70591,-0.76912 0.70591,-0.9283 0,-0.1592 -0.69316,-0.1965 -1.54036,-0.0829 -0.95436,0.12796 -1.76205,0.0226 -2.12308,-0.27701 -0.32049,-0.26598 -0.58273,-0.81211 -0.58273,-1.2136 0,-0.40151 0.21714,-1.08038 0.48252,-1.50857 0.39772,-0.64174 0.38076,-0.84333 -0.0964,-1.14691 -0.31847,-0.20259 -1.14026,-0.37099 -1.82623,-0.37424 -1.00358,-0.004 -1.2935,0.17858 -1.48426,0.93863 -0.13043,0.5195 -0.0369,1.55095 0.20768,2.29213 0.2597,0.78689 0.95758,1.67609 1.67727,2.13708 0.6779,0.43423 1.82682,0.79242 2.55318,0.79599 z m -235.30604,10.81495 c -0.63576,0 -0.96206,-0.28554 -1.14098,-0.99841 -0.13781,-0.54912 -0.13689,-2.253 0.002,-3.78641 0.13894,-1.53339 0.16567,-2.87497 0.0594,-2.98127 -0.1063,-0.10636 -1.32793,-0.0237 -2.71473,0.18355 -2.37661,0.35517 -2.57668,0.32491 -3.48327,-0.52679 -0.69794,-0.65581 -0.96172,-1.30615 -0.96172,-2.37149 0,-1.12507 0.21722,-1.61019 0.93013,-2.07732 0.51157,-0.33519 2.11837,-0.78439 3.57064,-0.99822 1.45229,-0.21382 3.21825,-0.47505 3.92437,-0.58049 1.01483,-0.15153 1.39904,-0.4674 1.83358,-1.50738 0.30234,-0.72362 0.54971,-1.59673 0.54971,-1.94028 0,-0.47992 -0.33532,-0.60443 -1.44756,-0.53746 -0.79615,0.048 -1.75409,0.0629 -2.12876,0.0333 -0.37465,-0.0296 -1.02541,-0.61849 -1.44611,-1.30851 -0.4207,-0.68999 -0.76557,-1.80649 -0.76636,-2.48108 -8.5e-4,-0.87078 0.29785,-1.46195 1.03042,-2.03817 0.88743,-0.69807 1.34628,-0.7761 3.27838,-0.55751 1.56702,0.17728 2.42354,0.10724 2.83175,-0.23153 0.32188,-0.26713 0.6937,-1.16399 0.82627,-1.99301 0.13255,-0.82902 0.57788,-1.93555 0.98959,-2.45896 0.41172,-0.52342 1.13159,-0.95167 1.59971,-0.95167 0.46812,0 1.23719,0.27042 1.70905,0.60091 0.65914,0.46169 0.85793,0.98342 0.85793,2.25176 0,0.90797 0.081,1.73186 0.18002,1.83088 0.099,0.0991 0.95707,0.0844 1.90679,-0.0321 1.43189,-0.17596 1.88117,-0.44292 2.63091,-1.56325 0.66243,-0.98987 1.23015,-1.38295 2.1236,-1.47033 0.83502,-0.0817 1.4719,0.13321 2.02015,0.68142 0.55434,0.55434 0.72984,1.08286 0.57045,1.71793 -0.21088,0.8402 -0.0233,0.98609 2.23219,1.7367 1.35432,0.45068 2.85484,1.0943 3.3345,1.43027 0.60248,0.42199 0.83545,0.92165 0.75355,1.61619 -0.0783,0.6639 -0.55895,1.26162 -1.4153,1.75993 -1.23073,0.71615 -1.39476,0.72324 -3.22168,0.13903 -1.33968,-0.42842 -2.20916,-0.5075 -2.85983,-0.26011 -0.5142,0.1955 -1.10411,0.80049 -1.31092,1.34443 -0.20681,0.54396 -0.48308,1.41559 -0.61395,1.93701 -0.23793,0.948 -0.23793,0.948 6.51192,0.948 5.68772,0 6.8297,0.0962 7.25726,0.61137 0.36538,0.44028 0.39526,0.7914 0.10675,1.25456 -0.22036,0.35374 -1.07882,1.03314 -1.90769,1.50976 -0.82888,0.47663 -2.11503,1.04687 -2.85811,1.26723 -0.74308,0.22035 -3.43554,0.57604 -5.98325,0.79045 -2.63036,0.22136 -4.81898,0.59122 -5.06444,0.85586 -0.23773,0.25632 -0.64542,1.59291 -0.90597,2.97021 -0.26055,1.3773 -0.71095,2.96292 -1.00089,3.5236 -0.28996,0.5607 -1.08338,1.3716 -1.76316,1.80202 -0.67979,0.43041 -1.45084,0.70011 -1.71344,0.59936 -0.2626,-0.10081 -0.5593,-0.49615 -0.6593,-0.87861 -0.10002,-0.38247 0.0474,-1.97725 0.32766,-3.54393 0.28024,-1.56672 0.51866,-3.26416 0.52983,-3.7721 0.0198,-0.90313 -0.0326,-0.91798 -2.37539,-0.67311 -1.31763,0.13773 -2.54361,0.3983 -2.7244,0.5791 -0.18079,0.18078 -0.55645,1.75105 -0.8348,3.48946 -0.36759,2.29575 -0.74965,3.42001 -1.39605,4.10806 -0.48947,0.52102 -1.29064,0.94734 -1.78035,0.94734 z m 7.29547,-14.66859 c 0.53201,0 1.5297,-0.11248 2.21709,-0.24997 0.93967,-0.18794 1.38268,-0.568 1.78532,-1.53167 0.29454,-0.70493 0.53553,-1.6347 0.53553,-2.06613 0,-0.68348 -0.24722,-0.78441 -1.92118,-0.78441 -1.60066,0 -2.02221,0.15417 -2.52674,0.9242 -0.33306,0.50831 -0.70721,1.55056 -0.83144,2.31609 -0.20906,1.28829 -0.15388,1.39189 0.74142,1.39189 z m 48.27915,14.26717 c -1.81776,-0.0102 -3.10085,-0.25001 -4.15263,-0.77473 -0.83714,-0.41767 -1.9458,-1.14899 -2.46368,-1.6252 -0.51789,-0.4762 -1.35119,-1.73433 -1.85179,-2.79589 -0.57618,-1.22182 -0.91078,-2.63833 -0.9118,-3.86015 -7.7e-4,-1.06153 0.18563,-2.60443 0.41447,-3.42862 0.23585,-0.84942 1.19159,-2.32763 2.20638,-3.41252 1.31407,-1.40483 2.84688,-2.43005 5.76215,-3.85396 3.08781,-1.50818 4.5152,-1.98358 6.41302,-2.13593 1.48976,-0.11962 2.7669,-0.0216 3.27698,0.25139 0.45971,0.24602 0.83584,0.79354 0.83584,1.21667 0,0.43587 -0.9218,1.62732 -2.12647,2.74852 -1.16956,1.08854 -2.95005,2.52468 -3.95666,3.19144 -1.0066,0.66674 -2.62402,1.82167 -3.59427,2.5665 -0.97023,0.74482 -2.31646,1.58303 -2.99161,1.86268 -0.71071,0.29439 -1.22755,0.78977 -1.22755,1.17658 0,0.36747 0.39562,1.25517 0.87915,1.97268 0.55306,0.8207 1.51949,1.54996 2.60561,1.96619 0.94955,0.36387 2.50813,0.6577 3.46352,0.65292 0.95539,-0.004 2.41755,-0.21399 3.24925,-0.46494 1.51217,-0.45629 1.51217,-0.45629 1.55005,-4.89204 0.0303,-3.55549 0.18199,-4.70387 0.7641,-5.78681 0.39942,-0.74309 1.43897,-2.2718 2.3101,-3.39714 0.87113,-1.12533 2.45242,-2.58417 3.51396,-3.24185 1.06155,-0.6577 2.63014,-1.27519 3.48578,-1.37222 0.90077,-0.10212 2.13374,0.0651 2.92875,0.3973 0.93424,0.39034 1.58288,0.45624 2.02968,0.2062 0.36115,-0.2021 1.15913,-0.25711 1.77328,-0.12225 0.61415,0.13495 1.33276,0.50568 1.59693,0.82399 0.27378,0.32988 0.51252,1.85726 0.55525,3.55228 0.0412,1.63546 0.20227,3.55332 0.35791,4.2619 0.15563,0.7086 0.6364,2.09536 1.06838,3.08169 0.43197,0.98633 1.38754,2.70688 2.1235,3.82348 0.73594,1.1166 1.23909,2.28813 1.11811,2.60341 -0.12095,0.31526 -0.79034,0.92097 -1.48748,1.34601 -0.69713,0.42503 -1.39175,0.77343 -1.54359,0.77424 -0.15184,7.7e-4 -0.85611,-0.50784 -1.56504,-1.13028 -0.70893,-0.62244 -1.76257,-2.09896 -2.34143,-3.28113 -0.57885,-1.18218 -1.18556,-2.14941 -1.34824,-2.14941 -0.16267,0 -0.98242,0.70484 -1.82167,1.56632 -0.83924,0.86147 -2.66053,2.34275 -4.0473,3.29173 -1.38678,0.94898 -3.17387,1.8313 -3.97133,1.96071 -1.0319,0.16744 -1.83222,0.0294 -2.77592,-0.47882 -1.32598,-0.71408 -1.32598,-0.71408 -2.39792,0.27036 -0.58957,0.54145 -1.97268,1.36012 -3.07358,1.81926 -1.40776,0.58712 -2.78212,0.83023 -4.63219,0.81942 z m 13.89136,-7.15767 c 0.46684,-0.14531 1.46808,-0.7514 2.22499,-1.34672 0.7569,-0.59535 2.10795,-1.87628 3.0023,-2.84654 0.89436,-0.97027 1.77756,-2.16249 1.96268,-2.64938 0.18512,-0.4869 0.2435,-1.71102 0.12974,-2.72027 -0.16991,-1.50751 -0.318,-1.78552 -0.82977,-1.55771 -0.34262,0.1525 -0.97035,0.27313 -1.39497,0.26805 -0.42463,-0.004 -1.31649,-0.13802 -1.98195,-0.2955 -1.05674,-0.25002 -1.41851,-0.098 -2.85762,1.20062 -0.90625,0.81779 -1.88172,2.04586 -2.16773,2.72904 -0.286,0.68319 -0.52001,2.28998 -0.52001,3.57065 0,1.83315 0.16844,2.49692 0.79178,3.12027 0.55445,0.55444 1.04619,0.71255 1.64056,0.52749 z m 130.54534,6.40103 c -0.29083,0 -0.65696,-0.20744 -0.81365,-0.46096 -0.15669,-0.25354 -0.49064,-2.06814 -0.74213,-4.03245 -0.33951,-2.65203 -0.81698,-4.32903 -1.85463,-6.51402 -0.76857,-1.61839 -1.55739,-2.84365 -1.75292,-2.72281 -0.19554,0.12081 -0.8617,1.13169 -1.48037,2.2463 -0.61867,1.11462 -1.35748,2.63454 -1.64183,3.37761 -0.28433,0.7431 -1.09046,2.30646 -1.7914,3.47414 -0.70092,1.16771 -1.88703,2.51393 -2.63577,2.99162 -0.74874,0.47769 -1.69872,0.86854 -2.11106,0.86854 -0.55242,0 -0.95275,-0.54266 -1.52129,-2.06223 -0.42437,-1.13421 -1.04751,-3.39817 -1.3848,-5.03099 -0.33726,-1.63283 -0.70244,-4.30924 -0.81151,-5.94761 -0.10913,-1.63834 -0.38853,-4.11818 -0.62104,-5.51074 -0.3603,-2.15805 -0.32909,-2.71297 0.21133,-3.75805 0.35342,-0.68345 1.0528,-1.33124 1.58016,-1.46359 0.62605,-0.15714 1.4004,0.0433 2.28915,0.59259 0.73867,0.45652 1.45377,1.17894 1.58912,1.60537 0.13539,0.42642 0.13174,1.60659 -0.008,2.62262 -0.13976,1.01601 -0.0626,3.56462 0.17148,5.66358 0.23404,2.09896 0.57995,3.97068 0.76868,4.15941 0.20018,0.20018 0.69862,-0.3595 1.19638,-1.34335 0.46929,-0.92757 1.63319,-2.9893 2.58646,-4.58161 0.95325,-1.59232 2.09015,-3.28596 2.52644,-3.76365 0.43629,-0.47769 1.16349,-0.86853 1.616,-0.86853 0.45252,0 1.40515,0.42966 2.11696,0.95483 0.71181,0.52515 1.78639,1.69769 2.38796,2.60561 0.60156,0.90792 1.52852,2.73601 2.05992,4.06244 0.69099,1.72476 1.03818,3.51037 1.21897,6.26916 0.25279,3.8575 0.25279,3.8575 -1.18353,5.21214 -0.78999,0.74504 -1.67428,1.35463 -1.96509,1.35463 z m -160.80231,-0.77203 c -0.35578,0 -0.8493,-0.48874 -1.09673,-1.0861 -0.36932,-0.89161 -0.20971,-2.67147 0.89139,-9.93989 0.73771,-4.86959 1.4608,-10.43761 1.60689,-12.37337 0.20977,-2.77955 0.15452,-3.58922 -0.26271,-3.85089 -0.29057,-0.18222 -3.53925,-0.33548 -7.2193,-0.34059 -6.69098,-0.009 -6.69098,-0.009 -7.62381,-1.09234 -0.6013,-0.69815 -0.93281,-1.56181 -0.93281,-2.43013 0,-0.92986 0.3054,-1.65249 0.98603,-2.33312 0.85512,-0.85511 1.20108,-0.95272 2.60561,-0.73507 0.89076,0.13802 7.78616,0.39612 15.32312,0.57352 7.53696,0.1774 14.64876,0.51788 15.80403,0.75664 1.15526,0.23875 2.50149,0.69684 2.99162,1.01799 0.49013,0.32114 0.89115,0.81326 0.89115,1.09358 0,0.28034 -0.87941,1.25124 -1.95423,2.15753 -1.95421,1.64783 -1.95421,1.64783 -4.84096,1.21847 -1.58771,-0.23614 -4.44673,-0.42934 -6.35339,-0.42934 -3.2383,0 -3.48874,0.0572 -3.80208,0.86853 -0.18448,0.4777 -0.71244,3.90841 -1.17323,7.62381 -0.4608,3.7154 -1.19274,8.92661 -1.62653,11.58047 -0.74323,4.54681 -0.86889,4.90872 -2.17797,6.27274 -0.76407,0.79616 -1.68032,1.44756 -2.03609,1.44756 z m 137.09738,-0.38747 c -1.05425,8.6e-4 -1.6384,-0.33236 -2.89513,-1.65295 -0.86591,-0.90991 -1.82776,-2.16928 -2.13744,-2.79861 -0.30967,-0.62931 -0.70479,-1.34087 -0.87804,-1.58122 -0.22008,-0.30536 -1.30546,0.0726 -3.6024,1.25453 -2.1488,1.1057 -3.78329,1.69109 -4.71919,1.69015 -0.78747,-7.7e-4 -1.98788,-0.34053 -2.66758,-0.75497 -0.6797,-0.41443 -1.54095,-1.32575 -1.9139,-2.02513 -0.43076,-0.80781 -0.67763,-2.11639 -0.67683,-3.58772 7.7e-4,-1.61905 0.25084,-2.79233 0.83054,-3.89849 0.45609,-0.87032 1.45894,-2.40734 2.22855,-3.41558 0.76961,-1.00824 1.28548,-1.94636 1.1464,-2.08473 -0.13904,-0.13846 -1.19181,-0.22906 -2.33938,-0.20153 -1.20285,0.0289 -2.49441,0.31735 -3.04969,0.68118 -0.52974,0.34711 -1.31475,1.32022 -1.74443,2.16247 -0.42969,0.84224 -1.21338,3.31503 -1.74154,5.49508 -0.52815,2.18004 -0.96052,4.44031 -0.9608,5.02284 -3.6e-4,0.79797 -0.39549,1.34525 -1.60246,2.21958 -0.8811,0.63826 -1.89398,1.16047 -2.25087,1.16047 -0.35689,0 -0.84887,-0.39084 -1.09327,-0.86854 -0.24442,-0.47769 -0.86465,-2.51876 -1.37829,-4.53567 -0.51366,-2.01694 -1.05723,-4.66077 -1.20794,-5.87519 -0.15073,-1.21442 -0.51921,-2.41151 -0.81883,-2.6602 -0.38729,-0.32141 -1.68295,-0.37375 -4.48148,-0.18099 -2.16518,0.14912 -4.14412,0.44329 -4.39764,0.6537 -0.29257,0.2428 -0.50819,1.9906 -0.59021,4.7841 -0.12926,4.40154 -0.12926,4.40154 -1.65513,5.96313 -0.83923,0.85889 -1.82942,1.5616 -2.20041,1.5616 -0.37096,0 -0.84076,-0.29706 -1.04395,-0.66017 -0.21138,-0.37769 -0.2784,-2.5091 -0.15665,-4.98111 0.117,-2.37649 0.11423,-4.57759 -0.006,-4.89133 -0.17908,-0.46663 -0.4919,-0.49754 -1.71943,-0.16989 -0.8253,0.22028 -1.93796,0.29073 -2.47258,0.15656 -0.53464,-0.13423 -1.17554,-0.69059 -1.42424,-1.23643 -0.24868,-0.54585 -0.45218,-1.3396 -0.45218,-1.76387 0,-0.42429 0.40238,-1.1738 0.89417,-1.66558 0.62181,-0.62182 1.5628,-0.9777 3.0895,-1.16845 1.45627,-0.18194 2.31003,-0.49229 2.53606,-0.92187 0.18738,-0.35616 0.46631,-2.60178 0.61983,-4.99024 0.27912,-4.34269 0.27912,-4.34269 -0.6316,-4.33576 -0.50091,0.004 -2.56094,0.26126 -4.57788,0.5721 -2.01693,0.31085 -4.31409,0.56829 -5.1048,0.57211 -1.20492,0.006 -1.53297,-0.17745 -2.02658,-1.13197 -0.32391,-0.62638 -0.58893,-1.54312 -0.58893,-2.0372 0,-0.49406 0.27042,-1.28437 0.60091,-1.75623 0.51403,-0.7339 0.95643,-0.85793 3.06019,-0.85793 1.35261,0 3.81807,-0.18539 5.47883,-0.41199 2.11527,-0.28861 3.44997,-0.70679 4.45678,-1.39638 1.15561,-0.79152 1.68505,-0.92864 2.7021,-0.69983 0.6957,0.1565 4.39162,0.32345 8.21317,0.37098 5.28335,0.0658 7.52005,0.25006 9.33441,0.76926 1.31235,0.37556 2.76669,1.08791 3.23183,1.58305 0.5823,0.61982 0.77396,1.17741 0.61533,1.79013 -0.12678,0.48946 -0.8512,1.30891 -1.60997,1.82102 -1.36472,0.92106 -1.395,0.92367 -2.80845,0.24192 -0.8739,-0.42151 -2.71885,-0.76521 -4.75028,-0.88494 -1.8268,-0.10768 -4.8163,-0.0712 -6.64335,0.0809 -2.61137,0.21754 -3.36169,0.41407 -3.50786,0.91887 -0.10227,0.3532 -0.30525,2.59637 -0.45109,4.98485 -0.26516,4.34267 -0.26516,4.34267 3.58483,4.34267 3.35975,0 3.93896,-0.0983 4.54868,-0.77204 0.4158,-0.45945 1.18891,-0.77202 1.90952,-0.77202 0.9219,0 1.61038,0.40708 2.88499,1.7058 1.36652,1.39238 1.62927,1.88454 1.43,2.67845 -0.13422,0.53495 -0.0846,1.07122 0.1103,1.19172 0.19496,0.12051 0.71333,-0.36159 1.15196,-1.07129 0.43861,-0.7097 1.73052,-2.17279 2.8709,-3.25131 1.66758,-1.57712 2.42559,-2.01376 3.87264,-2.23077 1.06018,-0.15898 2.55033,-0.081 3.62782,0.18981 1.00574,0.25279 2.39471,0.89085 3.0866,1.41791 1.0795,0.82231 1.78444,0.98556 4.96823,1.1506 2.31396,0.11993 4.03528,0.40532 4.57394,0.75826 0.47506,0.31125 1.17344,1.25276 1.552,2.09224 0.55404,1.22863 0.63098,1.99866 0.39458,3.94816 -0.16152,1.33203 -0.30452,2.95657 -0.31777,3.61009 -0.0146,0.69394 0.58347,2.27463 1.43635,3.79973 0.93911,1.67929 1.92873,2.88779 2.77241,3.38555 0.7216,0.42578 1.31199,1.02007 1.31199,1.32069 0,0.30059 -0.56454,0.89077 -1.25454,1.31147 -0.69001,0.4207 -1.84887,0.76556 -2.57527,0.76635 z M 380.179,525.34929 c 0.64068,-0.1281 1.91506,-0.67262 2.83194,-1.20994 1.44584,-0.84733 1.66704,-1.15073 1.66704,-2.2866 0,-0.72032 -0.17111,-1.75969 -0.38021,-2.30972 -0.20913,-0.55004 -0.68683,-1.09822 -1.06156,-1.21819 -0.37472,-0.11992 -1.05558,-0.39656 -1.51304,-0.61465 -0.45745,-0.21811 -1.03898,-0.26846 -1.2923,-0.1119 -0.2533,0.15655 -0.96469,1.07957 -1.58087,2.05118 -0.72081,1.13661 -1.1203,2.28035 -1.1203,3.20745 0,0.82913 0.27267,1.71359 0.64222,2.08312 0.44825,0.44827 0.994,0.57186 1.80708,0.40925 z m 59.37196,7.02307 c -1.93586,0.13291 -2.38641,0.0131 -3.9962,-1.06328 -0.9979,-0.66723 -2.43068,-2.07105 -3.18398,-3.11959 -0.7533,-1.04853 -1.5152,-1.90644 -1.69311,-1.90644 -0.1779,0 -1.52442,0.77799 -2.99226,1.72881 -1.46784,0.95085 -2.94587,1.73254 -3.28449,1.73708 -0.33864,0.004 -0.88628,-0.29573 -1.21698,-0.66727 -0.3307,-0.37154 -0.87874,-1.61901 -1.21787,-2.77216 -0.33914,-1.15316 -0.6166,-3.42941 -0.6166,-5.05834 0,-1.62892 0.35558,-6.24406 0.79017,-10.25585 0.43459,-4.01179 0.96161,-7.94262 1.17115,-8.73516 0.20955,-0.79255 0.71108,-1.61766 1.11454,-1.83358 0.40345,-0.21592 1.1358,-0.38706 1.62746,-0.38031 0.49165,0.008 1.16952,0.2239 1.50638,0.48253 0.33685,0.25863 0.80014,0.82276 1.02954,1.25361 0.30638,0.57545 0.27682,1.39503 -0.11132,3.08813 -0.29064,1.26761 -0.88421,4.7105 -1.31906,7.65085 -0.43484,2.94037 -0.79062,6.53454 -0.79062,7.98704 0,1.45253 0.18135,2.75303 0.403,2.89001 0.22164,0.137 0.87303,-0.0534 1.44756,-0.4232 0.5745,-0.36974 1.56568,-1.16477 2.20261,-1.76675 0.63692,-0.60198 2.2361,-1.96466 3.55373,-3.02817 1.31762,-1.06352 2.65522,-1.93365 2.97243,-1.93365 0.31723,0 0.73638,0.28522 0.93148,0.63384 0.1951,0.34862 0.26302,1.00001 0.15092,1.44755 -0.11205,0.44754 -0.61048,1.30474 -1.10757,1.90488 -0.49707,0.60013 -0.90378,1.30428 -0.90378,1.56476 0,0.26049 0.44653,1.36967 0.99227,2.46484 0.62193,1.24805 1.51637,2.32083 2.39651,2.87441 0.77233,0.48573 2.1806,1.14374 3.12949,1.4622 0.94891,0.31846 1.79045,0.78031 1.87011,1.02632 0.0796,0.246 -0.48932,0.93099 -1.26439,1.52216 -1.06056,0.80892 -1.94905,1.11193 -3.59108,1.22473 z"
     id="path1519"
     sodipodi:nodetypes="ssssssscssssssscssccssscsscsscsssssssssscssssssssssscssssssssssssscccssssssscssscccsccccsssssscssccccsssssccsccsssssssssscsssssssscsssssssccsssssssscssscssscsssssssssccssssscscssssssscsssssscsscccsssssccsssscsssssssssssscssssscssssssssssssssssssccssssssscssssssssssssssscsscsssssssssssssssssscscsssssscssssssssscsscssssssssssssssscssssscsssssssssssssssssssssscsssssscsssssssssssssssssssss" /><path
     style="fill:#000000;fill-opacity:1;stroke-width:0.386015"
     d="m 295.09591,507.47257 c -0.28536,0 -0.79133,-0.41589 -1.12439,-0.92422 -0.33306,-0.50832 -0.69305,-1.50713 -0.79997,-2.21959 -0.14545,-0.96912 0.25476,-2.3648 1.58904,-5.54155 0.9809,-2.33539 2.15596,-5.22694 2.61124,-6.42566 0.82779,-2.17947 0.82779,-2.17947 -0.61629,-3.86014 -0.79423,-0.92437 -2.55374,-3.1572 -3.91002,-4.96183 -1.35627,-1.80462 -3.0069,-3.91561 -3.66807,-4.6911 -0.66116,-0.77551 -1.47097,-1.94894 -1.79957,-2.60762 -0.4872,-0.97662 -0.51511,-1.44712 -0.15125,-2.54963 0.24541,-0.74361 0.76828,-1.5244 1.16194,-1.73507 0.39366,-0.21068 1.22486,-0.38305 1.84711,-0.38305 0.62226,0 1.57648,0.35013 2.12052,0.77806 0.54403,0.42794 1.1953,1.42676 1.44725,2.2196 0.25196,0.79285 0.99445,2.31006 1.64996,3.37159 0.65552,1.06156 1.96408,2.92891 2.90792,4.14967 0.94383,1.22077 1.93799,2.21959 2.20923,2.21959 0.27124,0 1.30685,-1.34623 2.30136,-2.99161 0.9945,-1.6454 2.93674,-4.51288 4.31608,-6.3722 1.66037,-2.23814 2.84373,-3.46486 3.50169,-3.63 0.5915,-0.14845 1.39527,-0.0249 1.98558,0.30534 0.54548,0.30513 1.04551,0.92622 1.11118,1.3802 0.0823,0.56922 -0.57025,1.55998 -2.10237,3.19185 -1.22196,1.30154 -3.07725,3.61676 -4.12285,5.14493 -1.0456,1.52815 -2.82059,4.68925 -3.94441,7.02466 -1.12383,2.33539 -2.66123,5.72997 -3.41645,7.54352 -0.75522,1.81354 -1.60868,4.42111 -1.8966,5.7946 -0.2879,1.3735 -1.01071,3.23356 -1.60625,4.13346 -0.59553,0.89991 -1.31625,1.6362 -1.60161,1.6362 z m -25.49894,-14.70651 c -1.8754,-0.0209 -4.13658,-0.23797 -5.02482,-0.4825 -0.88824,-0.24456 -2.05573,-0.86101 -2.5944,-1.36993 -0.53868,-0.50892 -1.17834,-1.52804 -1.42147,-2.26474 -0.37389,-1.13289 -0.32291,-1.61522 0.33063,-3.12787 0.53231,-1.23207 1.08833,-4.49031 1.78734,-10.47376 0.55807,-4.77695 1.12452,-10.47477 1.25878,-12.66185 0.1893,-3.08348 0.41109,-4.18876 0.98762,-4.92171 0.40893,-0.51985 1.0743,-0.94519 1.47861,-0.94519 0.40432,0 1.01346,0.4248 1.35366,0.94401 0.50679,0.77346 0.57367,1.59295 0.37012,4.53569 -0.13663,1.97542 -0.50663,5.56601 -0.82221,7.97911 -0.31558,2.4131 -0.48128,4.47996 -0.36821,4.59303 0.11307,0.11307 0.86012,-0.23582 1.66013,-0.77533 0.8,-0.5395 2.12044,-1.19152 2.93431,-1.44896 0.82494,-0.26094 2.73457,-0.40469 4.31534,-0.32488 2.56136,0.12942 3.0518,0.29193 5.07138,1.68113 1.75847,1.20963 2.50599,2.06021 3.50147,3.98427 0.87443,1.69011 1.26568,2.97761 1.26568,4.16504 0,0.98303 -0.3504,2.41438 -0.81858,3.34391 -0.45021,0.89386 -1.41945,2.36615 -2.15384,3.27176 -0.73439,0.9056 -1.81138,1.89276 -2.3933,2.19368 -0.58192,0.30092 -2.46437,0.90621 -4.18322,1.34506 -2.10052,0.53632 -4.2432,0.7855 -6.53502,0.76003 z M 270.81933,487.6 c 1.48615,-0.087 3.72868,-0.43322 4.98338,-0.76941 1.25471,-0.33617 2.86751,-0.8894 3.584,-1.2294 0.71649,-0.33999 1.48632,-0.96123 1.71071,-1.38053 0.2244,-0.41931 0.30169,-1.32908 0.17175,-2.02171 -0.12993,-0.69261 -0.8403,-1.88129 -1.57857,-2.64146 -0.83794,-0.86282 -2.11363,-1.62528 -3.39509,-2.02922 -1.92821,-0.60782 -2.19178,-0.60668 -4.3435,0.0189 -1.65363,0.48067 -2.68458,1.07984 -3.70684,2.15436 -0.99816,1.04917 -1.55104,2.09158 -1.87324,3.53187 -0.25141,1.12387 -0.39584,2.47052 -0.32095,2.9926 0.0879,0.6128 0.47817,1.05255 1.1012,1.24077 0.53077,0.16034 2.18098,0.22036 3.66715,0.13335 z"
     id="path1521"
     sodipodi:nodetypes="scsscsscsssscsccscccccsccsccsccsssssssssssccccsssccccccssssscsssscc" /></g></g>
</g>
</svg>
